<svg width="32" height="32" viewBox="0 0 32 32" fill="none" xmlns="http://www.w3.org/2000/svg">
<path d="M0 9.77778C0 4.37766 4.37766 0 9.77778 0H22.2222C27.6223 0 32 4.37766 32 9.77778V22.2222C32 27.6223 27.6223 32 22.2222 32H9.77778C4.37766 32 0 27.6223 0 22.2222V9.77778Z" fill="#FF6928"/>
<path fill-rule="evenodd" clip-rule="evenodd" d="M12.5843 11.111C11.8479 11.111 11.251 10.514 11.251 9.77767C11.251 9.04129 11.8479 8.44434 12.5843 8.44434H20.5556C22.2124 8.44434 23.5556 9.78748 23.5556 11.4443V19.4156C23.5556 20.152 22.9586 20.7489 22.2222 20.7489C21.4859 20.7489 20.8889 20.152 20.8889 19.4156V12.9966L10.7206 23.1649C10.1999 23.6856 9.35568 23.6856 8.83498 23.1649C8.31428 22.6442 8.31428 21.8 8.83498 21.2793L19.0033 11.111H12.5843Z" fill="white"/>
</svg>
