<svg width="44" height="44" viewBox="0 0 44 44" fill="none" xmlns="http://www.w3.org/2000/svg">
<path fill-rule="evenodd" clip-rule="evenodd" d="M16.9862 5.26343C14.2824 6.81901 11.9847 8.17771 11.8804 8.28296C11.7615 8.40284 12.2121 8.78178 13.0847 9.29584C15.6203 10.7897 15.1012 10.8411 18.7499 8.73647L21.9764 6.8755L25.191 8.71148C26.959 9.72131 28.4725 10.5477 28.5543 10.5477C28.6361 10.5477 29.5149 10.0789 30.5073 9.50613C31.9725 8.66027 32.261 8.41767 32.0418 8.21489C31.7427 7.93755 22.6711 2.70756 22.1996 2.54055C22.036 2.48264 19.69 3.70805 16.9862 5.26343ZM6.94597 11.0119L5.08275 12.0715L5.1331 14.3801L5.18366 16.6885L7.04688 17.7745L8.9101 18.8606V16.6432V14.4261L10.3705 13.5796C13.1147 11.9891 13.0523 12.2904 10.8966 11.0422C9.85944 10.4416 8.9655 9.9507 8.9101 9.95131C8.85471 9.95192 7.97084 10.4292 6.94597 11.0119ZM20.1901 10.9595C19.2485 11.5162 18.4518 12.0504 18.42 12.1467C18.388 12.2428 19.1842 12.7933 20.1893 13.3697L22.0169 14.4179L23.4702 13.5755C26.2064 11.9899 26.1448 12.2902 23.9895 11.0422C22.9523 10.4416 22.0584 9.94969 22.003 9.94887C21.9476 9.94806 21.1318 10.403 20.1901 10.9595ZM33.283 10.9628C32.3414 11.514 31.5709 12.0587 31.5709 12.1731C31.5709 12.2875 32.3414 12.8254 33.283 13.3681L34.9952 14.3551L35.0524 16.515C35.0838 17.703 35.1638 18.6751 35.2299 18.6751C35.2961 18.6751 36.1542 18.211 37.1366 17.6439L38.9231 16.6127L38.9186 14.3421L38.9142 12.0715L37.0238 11.0048C35.984 10.418 35.1023 9.94319 35.0643 9.94928C35.0262 9.95538 34.2247 10.4115 33.283 10.9628ZM13.3875 14.8682L11.5198 15.9321L11.5746 18.1582L11.6294 20.3841L14.8523 22.2467L18.0751 24.109L18.1758 27.9342L18.2766 31.7594L20.1273 32.835L21.9782 33.9107L23.8537 32.8173L25.7294 31.7242L25.8302 27.9054L25.9309 24.0867L29.1537 22.2404L32.3766 20.3938L32.4332 18.1584L32.4896 15.9231L30.6492 14.8609C29.637 14.2767 28.7144 13.7986 28.5992 13.7986C28.484 13.7986 26.9517 14.6211 25.1944 15.6267L21.999 17.4545L18.8224 15.6267C17.0752 14.6211 15.5579 13.7998 15.4505 13.8015C15.3429 13.8031 14.4148 14.283 13.3875 14.8682ZM5.13028 25.7156L5.18366 31.7673L10.2194 34.6617C12.989 36.2534 15.3232 37.5593 15.4062 37.5635C15.4892 37.5678 15.5569 36.5883 15.5563 35.387L15.5551 33.2028L12.2327 31.3L8.9101 29.3973V25.5978V21.798L8.25546 21.4664C7.8953 21.284 7.03298 20.8038 6.33886 20.3995L5.0769 19.664L5.13028 25.7156ZM36.9638 20.7742L35.1052 21.8244L35.1005 25.6248L35.0959 29.4252L31.7749 31.314L28.454 33.2028L28.4514 35.4088C28.4491 37.2171 28.4995 37.595 28.7307 37.5056C29.129 37.3514 38.5879 31.8864 38.775 31.7023C38.8598 31.619 38.9051 28.8896 38.8757 25.6372L38.8223 19.7239L36.9638 20.7742ZM11.5331 25.7357L11.5375 27.92L13.428 28.9867C14.4677 29.5733 15.3722 30.0534 15.4378 30.0534C15.5035 30.0534 15.5573 29.0704 15.5573 27.8692L15.5571 25.6849L13.6775 24.6182C12.6436 24.0314 11.7372 23.5515 11.6632 23.5515C11.5893 23.5515 11.5307 24.5345 11.5331 25.7357ZM30.57 24.4795C29.6871 24.988 28.8488 25.5015 28.7068 25.6203C28.5273 25.7705 28.4487 26.4784 28.4487 27.9448C28.4487 29.1045 28.5025 30.0534 28.5682 30.0534C28.6339 30.0534 29.5383 29.5733 30.578 28.9867L32.4685 27.92L32.4729 25.7357C32.4753 24.5345 32.4092 23.5521 32.3263 23.5529C32.2433 23.5539 31.4529 23.9707 30.57 24.4795ZM18.1758 37.0219L18.176 39.2983L20.082 40.3801L21.9881 41.4617L23.9047 40.3801L25.8213 39.2983L25.8257 37.1141C25.8281 35.9129 25.773 34.9299 25.7031 34.9299C25.633 34.9299 24.7755 35.3919 23.7971 35.9566L22.0185 36.9833L20.0973 35.8643L18.1758 34.7452V37.0219Z" fill="black"/>
</svg>
