<svg width="44" height="44" viewBox="0 0 44 44" fill="none" xmlns="http://www.w3.org/2000/svg">
<path fill-rule="evenodd" clip-rule="evenodd" d="M8.76625 8.61914C5.30212 10.6569 4.15173 11.4377 3.95679 11.8832C3.81602 12.2052 3.62966 12.4688 3.54265 12.4688C3.45564 12.4688 3.38452 14.7553 3.38452 17.5499C3.38452 20.3446 3.45564 22.6311 3.54265 22.6311C3.62966 22.6311 3.81623 22.8932 3.95721 23.2133C4.24543 23.868 4.56796 24.0824 9.56274 26.9421C12.2067 28.456 13.3172 28.9826 13.8656 28.9826C14.4452 28.9826 16.0903 28.1107 21.4919 24.9409C29.5092 20.2362 29.7778 20.0901 30.4103 20.0916C31.0252 20.0931 35.5559 22.6536 36.2315 23.3814C36.7316 23.9203 36.7458 24.0251 36.7458 27.183C36.7458 30.3297 36.7301 30.4474 36.238 30.9776C35.3683 31.9146 31.1424 34.2759 30.3423 34.2719C29.8552 34.2693 28.8516 33.8154 27.1244 32.8165C24.0815 31.0568 23.8516 30.7337 23.907 28.2907C23.9277 27.386 23.907 26.6112 23.861 26.5686C23.8152 26.5261 22.9777 26.9812 21.9999 27.58L20.222 28.6688L20.2245 30.6132C20.2268 32.2233 20.299 32.655 20.6445 33.1235C21.0836 33.7187 29.8044 38.9057 30.3952 38.9231C30.9614 38.9398 39.5069 33.8825 40.0826 33.19L40.6153 32.5494L40.6145 27.3255C40.6138 22.6019 40.5764 22.0411 40.2246 21.4667C39.9487 21.0164 38.5942 20.1117 35.5716 18.3585C33.2264 16.9984 31.0685 15.8259 30.7765 15.7533C30.0273 15.5666 29.5 15.8111 25.3599 18.2643C15.2802 24.2368 14.5862 24.6198 13.8426 24.6204C13.3197 24.621 12.4182 24.2167 10.6874 23.2051C9.35483 22.4264 8.08417 21.5876 7.86372 21.3409C7.50459 20.9393 7.46317 20.5466 7.46317 17.5499C7.46317 14.6111 7.5094 14.1553 7.84489 13.7801C8.05468 13.5453 9.29773 12.7256 10.6071 11.9583C12.3523 10.9355 13.1911 10.5633 13.7497 10.5633C14.6477 10.5633 18.3534 12.5782 19.4377 13.6561C20.1059 14.3204 20.1175 14.3647 20.1175 16.2585C20.1175 17.5095 20.1976 18.1851 20.3459 18.1851C20.4714 18.1851 21.3185 17.7335 22.2283 17.1818L23.8824 16.1782V14.313C23.8824 13.0976 23.7767 12.241 23.5791 11.8539C23.3588 11.4231 22.0365 10.5261 18.7566 8.58294C16.2712 7.11046 14.0311 5.91342 13.7786 5.92315C13.5261 5.93268 11.2708 7.14602 8.76625 8.61914Z" fill="black"/>
</svg>
