<svg width="64" height="64" viewBox="0 0 64 64" fill="none" xmlns="http://www.w3.org/2000/svg">
<path fill-rule="evenodd" clip-rule="evenodd" d="M24.7073 7.65574C20.7745 9.91841 17.4324 11.8947 17.2806 12.0478C17.1077 12.2222 17.7632 12.7733 19.0324 13.5211C22.7205 15.6939 21.9655 15.7687 27.2727 12.7074L31.9657 10.0006L36.6415 12.6711C39.2131 14.1399 41.4146 15.3419 41.5336 15.3419C41.6525 15.3419 42.9308 14.6601 44.3744 13.827C46.5056 12.5966 46.9251 12.2437 46.6064 11.9488C46.1713 11.5454 32.9763 3.93812 32.2904 3.69519C32.0525 3.61096 28.64 5.39337 24.7073 7.65574ZM10.1033 16.0172L7.39314 17.5585L7.46639 20.9164L7.53993 24.2741L10.2501 25.8537L12.9602 27.4334V24.2082V20.9832L15.0844 19.752C19.076 17.4385 18.9852 17.8768 15.8497 16.0612C14.3411 15.1876 13.0408 14.4736 12.9602 14.4745C12.8796 14.4754 11.594 15.1696 10.1033 16.0172ZM29.3675 15.941C27.9978 16.7507 26.839 17.5277 26.7928 17.6678C26.7462 17.8076 27.9043 18.6082 29.3664 19.4467L32.0246 20.9714L34.1385 19.7461C38.1185 17.4397 38.0288 17.8765 34.8939 16.0612C33.3853 15.1876 32.085 14.4721 32.0044 14.4709C31.9239 14.4698 30.7372 15.1315 29.3675 15.941ZM48.4117 15.9457C47.042 16.7475 45.9214 17.5398 45.9214 17.7062C45.9214 17.8726 47.042 18.6549 48.4117 19.4443L50.9021 20.8801L50.9854 24.0217C51.0311 25.7497 51.1474 27.1636 51.2435 27.1636C51.3399 27.1636 52.588 26.4886 54.0169 25.6637L56.6154 24.1638L56.609 20.8611L56.6025 17.5585L53.8528 16.0069C52.3404 15.1533 51.058 14.4627 51.0026 14.4715C50.9473 14.4804 49.7815 15.1439 48.4117 15.9457ZM19.4727 21.6263L16.7562 23.1738L16.8359 26.4117L16.9155 29.6494L21.6033 32.3586L26.2912 35.0675L26.4377 40.6314L26.5841 46.1953L29.2761 47.7599L31.9684 49.3245L34.6964 47.7342L37.4247 46.1442L37.5712 40.5894L37.7177 35.035L42.4055 32.3494L47.0933 29.6636L47.1756 26.412L47.2577 23.1608L44.5806 21.6157C43.1084 20.766 41.7665 20.0706 41.5989 20.0706C41.4313 20.0706 39.2026 21.2669 36.6465 22.7296L31.9986 25.3883L27.3781 22.7296C24.8368 21.2669 22.6297 20.0723 22.4735 20.0747C22.3171 20.0771 20.967 20.7751 19.4727 21.6263ZM7.46229 37.4044L7.53993 46.2068L14.8646 50.4168C18.8932 52.7321 22.2884 54.6315 22.4091 54.6377C22.5298 54.6439 22.6282 53.2191 22.6273 51.4719L22.6256 48.2948L17.793 45.5271L12.9602 42.7596V37.233V31.7061L12.008 31.2237C11.4841 30.9583 10.2299 30.26 9.22021 29.6718L7.38464 28.602L7.46229 37.4044ZM53.7655 30.2168L51.0621 31.7445L51.0554 37.2723L51.0486 42.8001L46.2181 45.5475L41.3877 48.2948L41.3838 51.5035C41.3806 54.1338 41.4539 54.6835 41.7902 54.5535C42.3695 54.3292 56.1279 46.38 56.4001 46.1122C56.5234 45.9911 56.5893 42.0211 56.5466 37.2903L56.4689 28.6892L53.7655 30.2168ZM16.7755 37.4337L16.7819 40.6107L19.5316 42.1623C21.044 43.0156 22.3596 43.7139 22.4551 43.7139C22.5506 43.7139 22.6288 42.2841 22.6288 40.5368L22.6285 37.3598L19.8946 35.8082C18.3907 34.9547 17.0723 34.2566 16.9648 34.2566C16.8572 34.2566 16.772 35.6864 16.7755 37.4337ZM44.4655 35.6063C43.1813 36.3461 41.9619 37.0929 41.7554 37.2658C41.4943 37.4842 41.38 38.5139 41.38 40.6468C41.38 42.3337 41.4583 43.7139 41.5538 43.7139C41.6493 43.7139 42.9648 43.0156 44.4772 42.1623L47.2269 40.6107L47.2334 37.4337C47.2369 35.6864 47.1408 34.2575 47.0201 34.2587C46.8993 34.2601 45.7497 34.8663 44.4655 35.6063ZM26.4377 53.8498L26.4379 57.1611L29.2102 58.7345L31.9827 60.3077L34.7705 58.7345L37.5583 57.1611L37.5647 53.984C37.5683 52.2368 37.488 50.8069 37.3863 50.8069C37.2844 50.8069 36.0371 51.479 34.6141 52.3003L32.027 53.7937L29.2325 52.1661L26.4377 50.5383V53.8498Z" fill="#FFD541"/>
</svg>
