<svg width="64" height="64" viewBox="0 0 64 64" fill="none" xmlns="http://www.w3.org/2000/svg">
<path fill-rule="evenodd" clip-rule="evenodd" d="M12.7511 12.5369C7.71232 15.5009 6.03903 16.6366 5.75548 17.2845C5.55073 17.7529 5.27966 18.1363 5.1531 18.1363C5.02653 18.1363 4.9231 21.4622 4.9231 25.5271C4.9231 29.5921 5.02653 32.9179 5.1531 32.9179C5.27966 32.9179 5.55104 33.2992 5.75609 33.7648C6.17533 34.717 6.64446 35.0289 13.9096 39.1884C17.7554 41.3906 19.3706 42.1564 20.1683 42.1564C21.0113 42.1564 23.4042 40.8883 31.261 36.2777C42.9227 29.4344 43.3133 29.2219 44.2333 29.2241C45.1278 29.2262 51.7178 32.9506 52.7005 34.0093C53.4279 34.793 53.4486 34.9455 53.4486 39.5389C53.4486 44.1159 53.4258 44.2871 52.7099 45.0582C51.4449 46.4212 45.2981 49.8558 44.1344 49.8499C43.4259 49.8462 41.9661 49.186 39.4538 47.7331C35.0278 45.1734 34.6934 44.7035 34.774 41.15C34.8041 39.8342 34.774 38.7071 34.7071 38.6452C34.6405 38.5833 33.4223 39.2454 32 40.1163L29.414 41.7L29.4177 44.5283C29.421 46.8702 29.526 47.4981 30.0286 48.1796C30.6672 49.0453 43.3519 56.59 44.2114 56.6153C45.035 56.6396 57.4648 49.2836 58.302 48.2763L59.0769 47.3445L59.0757 39.7461C59.0748 32.8754 59.0203 32.0597 58.5086 31.2242C58.1073 30.5692 56.1371 29.2533 51.7406 26.7032C48.3295 24.7249 45.1907 23.0195 44.766 22.9139C43.6763 22.6423 42.9093 22.9979 36.8872 26.5662C22.2259 35.2534 21.2164 35.8105 20.1348 35.8114C19.3743 35.8124 18.063 35.2242 15.5455 33.7528C13.6072 32.6201 11.759 31.4 11.4383 31.0413C10.9159 30.4571 10.8557 29.8859 10.8557 25.5271C10.8557 21.2525 10.9229 20.5895 11.4109 20.0438C11.7161 19.7023 13.5241 18.5099 15.4286 17.3939C17.9672 15.9062 19.1872 15.3648 19.9998 15.3648C21.3058 15.3648 26.696 18.2955 28.2731 19.8633C29.2452 20.8297 29.2619 20.894 29.2619 23.6486C29.2619 25.4683 29.3784 26.451 29.5941 26.451C29.7767 26.451 31.0088 25.7941 32.3322 24.9916L34.7381 23.5319V20.8189C34.7381 19.0509 34.5845 17.805 34.297 17.242C33.9766 16.6154 32.0533 15.3106 27.2825 12.4842C23.6673 10.3424 20.409 8.60128 20.0418 8.61544C19.6745 8.6293 16.394 10.3942 12.7511 12.5369Z" fill="#7230FF"/>
</svg>
