<svg width="392" height="360" viewBox="0 0 392 360" fill="none" xmlns="http://www.w3.org/2000/svg">
<path d="M372 181C372 278.202 293.202 357 196 357C98.7979 357 20 278.202 20 181C20 83.7979 98.7979 5 196 5C293.202 5 372 83.7979 372 181Z" fill="white"/>
<path fill-rule="evenodd" clip-rule="evenodd" d="M196 354C291.545 354 369 276.545 369 181C369 85.4547 291.545 8 196 8C100.455 8 23 85.4547 23 181C23 276.545 100.455 354 196 354ZM196 357C293.202 357 372 278.202 372 181C372 83.7979 293.202 5 196 5C98.7979 5 20 83.7979 20 181C20 278.202 98.7979 357 196 357Z" fill="#222222"/>
<path fill-rule="evenodd" clip-rule="evenodd" d="M223.854 61.1693C224.194 59.8311 225.554 59.0217 226.892 59.3616C294.071 76.423 334.7 144.713 317.638 211.892C300.577 279.071 232.287 319.7 165.108 302.639C163.769 302.299 162.96 300.938 163.3 299.6C163.64 298.262 165 297.453 166.338 297.792C230.841 314.174 296.411 275.164 312.792 210.662C329.174 146.159 290.164 80.5894 225.662 64.2078C224.323 63.8679 223.514 62.5075 223.854 61.1693Z" fill="#E3B4FA"/>
<path d="M337 181C337 181 273.872 272 196 272C118.128 272 55 181 55 181C55 181 118.128 90 196 90C273.872 90 337 181 337 181Z" fill="#FFCD9F"/>
<path fill-rule="evenodd" clip-rule="evenodd" d="M58.6944 181C59.1127 181.571 59.6355 182.277 60.259 183.103C62.1108 185.556 64.8498 189.071 68.3817 193.294C75.4492 201.745 85.6724 213.007 98.2944 224.261C123.638 246.857 158.184 269 196 269C233.816 269 268.362 246.857 293.706 224.261C306.328 213.007 316.551 201.745 323.618 193.294C327.15 189.071 329.889 185.556 331.741 183.103C332.364 182.277 332.887 181.571 333.306 181C332.887 180.429 332.364 179.723 331.741 178.897C329.889 176.444 327.15 172.929 323.618 168.706C316.551 160.255 306.328 148.993 293.706 137.739C268.362 115.143 233.816 93 196 93C158.184 93 123.638 115.143 98.2944 137.739C85.6724 148.993 75.4492 160.255 68.3817 168.706C64.8498 172.929 62.1108 176.444 60.259 178.897C59.6355 179.723 59.1127 180.429 58.6944 181ZM337 181C337 181 273.872 272 196 272C118.128 272 55 181 55 181C55 181 118.128 90 196 90C273.872 90 337 181 337 181Z" fill="#222222"/>
<path d="M76.4618 251.309C78.1397 249.564 80.8603 249.564 82.5382 251.309L90.7415 259.84C92.4195 261.585 92.4195 264.415 90.7415 266.16L82.5382 274.691C80.8603 276.436 78.1397 276.436 76.4618 274.691L68.2585 266.16C66.5805 264.415 66.5805 261.585 68.2585 259.84L76.4618 251.309Z" fill="#FFCD9F"/>
<path d="M137.462 53.3088C139.14 51.5637 141.86 51.5637 143.538 53.3088L151.742 61.8402C153.419 63.5853 153.419 66.4147 151.742 68.1598L143.538 76.6912C141.86 78.4363 139.14 78.4363 137.462 76.6912L129.258 68.1598C127.581 66.4147 127.581 63.5853 129.258 61.8402L137.462 53.3088Z" fill="#E3B4FA"/>
<path d="M280.517 65.1143C283.269 62.2952 287.731 62.2952 290.483 65.1143L303.936 78.8957C306.688 81.7147 306.688 86.2853 303.936 89.1043L290.483 102.886C287.731 105.705 283.269 105.705 280.517 102.886L267.064 89.1043C264.312 86.2853 264.312 81.7147 267.064 78.8957L280.517 65.1143Z" fill="#B4DCFA"/>
<circle cx="196" cy="181" r="69" fill="#222222"/>
<path fill-rule="evenodd" clip-rule="evenodd" d="M196 132.5C169.214 132.5 147.5 154.214 147.5 181C147.5 182.381 146.381 183.5 145 183.5C143.619 183.5 142.5 182.381 142.5 181C142.5 151.453 166.453 127.5 196 127.5C197.381 127.5 198.5 128.619 198.5 130C198.5 131.381 197.381 132.5 196 132.5Z" fill="#B4DCFA"/>
<path fill-rule="evenodd" clip-rule="evenodd" d="M220.373 213.617C218.756 215.948 216.524 218.084 213.305 218.084C207.637 218.084 204.691 213.584 202.647 210.262C202.465 209.965 202.289 209.677 202.119 209.398C201.243 207.959 200.505 206.746 199.684 205.802C198.749 204.726 197.994 204.344 197.207 204.344C196.228 204.344 195.008 205.077 193.419 207.222C192.044 209.079 190.733 211.515 189.299 214.18C189.136 214.483 188.972 214.788 188.806 215.096C187.225 218.024 185.482 221.157 183.454 223.553C181.431 225.941 178.828 227.949 175.476 227.949C170.994 227.949 168.588 224.752 166.849 222.442C166.793 222.368 166.737 222.294 166.683 222.221C164.727 219.63 163.413 218.084 161 218.084C160.21 218.084 159.02 218.737 157.362 220.715C155.793 222.587 154.222 225.126 152.564 227.836C152.507 227.929 152.45 228.023 152.393 228.116C150.831 230.669 149.187 233.357 147.509 235.417C146.634 236.491 145.683 237.479 144.652 238.211C143.617 238.945 142.387 239.5 141 239.5C139.895 239.5 139 238.605 139 237.5C139 236.395 139.895 235.5 141 235.5C141.289 235.5 141.721 235.386 142.337 234.949C142.957 234.509 143.647 233.824 144.408 232.89C145.912 231.044 147.433 228.558 149.063 225.894L149.152 225.748C150.77 223.104 152.499 220.289 154.296 218.145C156.005 216.108 158.247 214.084 161 214.084C165.56 214.084 167.99 217.309 169.746 219.641C169.79 219.698 169.833 219.755 169.875 219.812C171.846 222.423 173.127 223.949 175.476 223.949C177.086 223.949 178.675 223.006 180.401 220.968C182.12 218.938 183.68 216.17 185.286 213.196C185.452 212.888 185.619 212.577 185.787 212.265C187.189 209.657 188.645 206.948 190.205 204.842C191.894 202.561 194.162 200.344 197.207 200.344C199.64 200.344 201.401 201.679 202.704 203.179C203.767 204.403 204.717 205.966 205.585 207.396C205.744 207.658 205.9 207.916 206.054 208.166C208.236 211.713 210.119 214.084 213.305 214.084C214.513 214.084 215.701 213.334 217.086 211.337C218.286 209.606 219.351 207.356 220.54 204.842C220.721 204.461 220.904 204.074 221.091 203.682C222.457 200.815 224.014 197.702 226.041 195.313C228.113 192.872 230.836 191 234.5 191C235.605 191 236.5 191.895 236.5 193C236.5 194.105 235.605 195 234.5 195C232.395 195 230.692 196.014 229.091 197.901C227.446 199.84 226.086 202.498 224.702 205.402C224.526 205.771 224.349 206.146 224.171 206.523C223.003 208.997 221.778 211.591 220.373 213.617Z" fill="#FFCD9F"/>
<path d="M222.78 142.005C225.689 140.462 228.84 143.613 227.297 146.522L224.877 151.085C224.357 152.065 224.357 153.238 224.877 154.217L227.297 158.78C228.84 161.689 225.689 164.841 222.78 163.297L218.217 160.877C217.238 160.357 216.065 160.357 215.085 160.877L210.522 163.297C207.613 164.841 204.462 161.689 206.005 158.78L208.426 154.217C208.945 153.238 208.945 152.065 208.426 151.085L206.005 146.522C204.462 143.613 207.613 140.462 210.522 142.005L215.085 144.426C216.065 144.945 217.238 144.945 218.217 144.426L222.78 142.005Z" fill="white"/>
</svg>
