<svg width="144" height="61" viewBox="0 0 144 61" fill="none" xmlns="http://www.w3.org/2000/svg">
<path d="M56.8405 14.2113H56.9917C57.06 23.615 56.9845 33.0222 57.0312 42.4294C57.0096 42.9693 57.0708 43.5268 56.9233 44.0561C56.4663 44.5854 55.959 45.0758 55.5128 45.6157H55.0667C55.1422 35.6616 55.0774 25.7004 55.099 15.7463C55.7107 15.2699 56.3044 14.7689 56.8405 14.2113Z" fill="#F1444A"/>
<path d="M23.3417 24.6099C25.6625 24.6311 27.9833 24.617 30.3041 24.6205C30.3041 25.0933 30.3041 25.5697 30.3077 26.0425C28.9261 26.0425 27.5444 26.046 26.1627 26.039C26.1591 27.4186 26.0511 28.8124 26.267 30.1851C27.163 30.1533 28.0553 30.1498 28.9512 30.1533C28.9512 30.4744 28.9512 31.1166 28.9548 31.4377C28.0517 31.4377 27.1486 31.4342 26.2454 31.4059C26.0691 32.7715 26.1555 34.1477 26.1663 35.5203C27.548 35.5132 28.9261 35.5132 30.3077 35.5167C30.3041 35.9931 30.3041 36.4695 30.3005 36.9458C27.9833 36.9564 25.6661 36.9352 23.3525 36.9599C23.3165 32.8421 23.3381 28.7278 23.3417 24.6099Z" fill="#F1444A"/>
<path d="M2.39648 26.9818C2.68074 25.948 3.37518 24.8823 4.53738 24.6918C5.70318 24.5824 6.95174 24.4589 8.07076 24.8788C9.09983 25.2917 9.3517 26.4702 9.53161 27.4264C9.1718 27.4264 8.45217 27.4264 8.09235 27.43C7.88366 27.0101 7.72174 26.5584 7.43029 26.1879C6.77543 25.8456 6.063 26.1632 5.44412 26.4137C5.44771 27.0277 5.20664 27.7475 5.64921 28.2733C6.69987 29.4871 7.85487 30.6128 8.86235 31.8654C10.1325 33.4533 9.5568 36.2903 7.45188 36.8831C6.37244 37.0066 5.2714 37.0066 4.19196 36.8831C3.08733 36.6678 2.49723 35.581 2.39648 34.5612V34.1625C2.71672 34.1519 3.35359 34.1272 3.67383 34.1166C3.81056 34.4695 3.94369 34.8259 4.07682 35.1823C4.87921 35.6269 5.73916 35.5351 6.52716 35.1152C6.48758 34.5401 6.67108 33.8732 6.2429 33.3898C5.02313 31.7278 3.15929 30.5104 2.39648 28.545V26.9818Z" fill="#F1444A"/>
<path d="M12.2487 36.9741C12.1947 32.8492 12.1839 28.7208 12.2523 24.5959C13.1806 24.6206 14.1054 24.6241 15.0337 24.6241C15.0373 26.4166 15.0301 28.2127 15.0409 30.0052C15.9404 30.0016 16.8435 30.0016 17.7467 30.0016C17.7467 28.2091 17.7431 26.4166 17.7467 24.6241C18.693 24.6241 19.6429 24.6206 20.5892 24.6064C20.6144 28.7278 20.6468 32.8457 20.5748 36.9635C19.6321 36.9459 18.6858 36.9459 17.7431 36.9424C17.7215 35.0934 17.815 33.2374 17.6783 31.3884C16.8004 31.4731 15.9188 31.5507 15.0373 31.5754C15.0301 33.3644 15.0409 35.1534 15.0301 36.9424C14.1018 36.9424 13.1734 36.9459 12.2487 36.9741Z" fill="#F1444A"/>
<path d="M33.1177 36.949C33.1249 32.8311 33.0926 28.7168 33.1357 24.6024C34.0893 24.6166 35.0428 24.6236 35.9963 24.6377C36.0107 28.2686 35.9495 31.8996 36.0287 35.5305C37.378 35.5058 38.7273 35.5164 40.0766 35.5093C40.073 35.9892 40.0694 36.4691 40.0622 36.949C37.7486 36.9454 35.435 36.9454 33.1177 36.949Z" fill="#F1444A"/>
<path d="M42.8505 36.9675C42.8217 32.8461 42.8145 28.7248 42.8541 24.6069C45.1749 24.6387 47.4993 24.614 49.8201 24.621C49.8201 24.9774 49.8237 25.6902 49.8237 26.0466C48.4384 26.043 47.0567 26.0466 45.6751 26.036C45.6427 27.3592 45.6499 28.6824 45.6571 30.0092C46.6394 29.9986 47.654 29.8998 48.5896 30.2632C48.5824 30.6373 48.5752 31.0113 48.5752 31.3853C47.6289 31.5159 46.5746 31.2512 45.6966 31.5829C45.5851 33.3648 45.6859 35.1574 45.6499 36.9428C44.718 36.9428 43.7824 36.9499 42.8505 36.9675Z" fill="#F1444A"/>
<path d="M84.2563 24.6453C87.07 24.603 89.8838 24.603 92.6975 24.6453C92.6975 24.9947 92.7011 25.6898 92.7011 26.0391C91.7692 26.0427 90.8409 26.0462 89.9126 26.0427C89.8946 29.6771 89.9162 33.3151 89.9018 36.9495C88.9519 36.9495 87.9984 36.9495 87.0484 36.9495C87.0377 33.3115 87.0664 29.6771 87.0305 26.0427C86.1057 26.0497 85.1774 26.0497 84.2527 26.0074C84.2527 25.6651 84.2527 24.9876 84.2563 24.6453Z" fill="#222222"/>
<path d="M140.251 24.6278C141.157 24.6243 142.068 24.6066 142.978 24.5537V24.963C140.78 26.5861 139.232 28.8833 137.322 30.8063C139.258 32.6835 140.74 35.0371 142.978 36.5932V36.9955C141.971 36.9178 140.967 36.9461 139.963 36.9531C138.624 35.3723 137.228 33.8444 135.882 32.2707C135.872 33.8303 135.868 35.3864 135.875 36.9425C134.929 36.9496 133.983 36.9496 133.04 36.9531C133.04 32.8388 133.033 28.728 133.044 24.6172C133.983 24.6207 134.925 24.6207 135.868 24.6243C135.879 26.2509 135.854 27.8741 135.897 29.5008C137.376 27.9023 138.869 26.3144 140.251 24.6278Z" fill="#222222"/>
<path d="M63.369 24.5573C63.9339 24.5856 64.4485 24.8008 64.8119 25.2348C67.0355 27.3379 69.4643 29.2186 71.634 31.3781C71.7455 29.1304 71.6663 26.8827 71.6879 24.6385C72.0262 24.6209 72.7026 24.5891 73.0372 24.575C73.4762 25.9053 73.1524 27.3202 73.1344 28.6823C73.3359 30.436 73.2064 32.2003 73.2423 33.961C73.2028 34.9949 73.3971 36.0711 73.0121 37.0662C72.6486 36.9356 72.2313 36.8545 71.9614 36.5581C69.637 34.3809 67.1866 32.3449 64.8371 30.196C64.8155 32.4508 64.855 34.7091 64.8119 36.9674C64.3261 36.9568 63.844 36.9427 63.3618 36.9321C63.3762 32.8072 63.3618 28.6823 63.369 24.5573Z" fill="#222222"/>
<path d="M75.9372 24.6205C78.294 24.6311 80.6472 24.5958 83.004 24.6452C83.004 24.9875 83.0076 25.6756 83.0076 26.0214C81.6079 26.0567 80.2046 26.0461 78.8013 26.039C78.7905 27.3481 78.8121 28.6537 78.7653 29.9628C79.5821 30.0087 80.3989 29.9875 81.2157 30.0052C81.8382 30.2204 81.5179 30.9332 81.5971 31.4166C80.6616 31.4166 79.726 31.4695 78.7977 31.5789C78.7905 32.8915 78.7905 34.2042 78.8013 35.5168C80.2118 35.5133 81.6223 35.5027 83.0291 35.538C83.0111 35.8908 82.9716 36.593 82.9536 36.9459C80.6148 36.9529 78.276 36.9459 75.9336 36.9494C75.9408 32.8421 75.9372 28.7313 75.9372 24.6205Z" fill="#222222"/>
<path d="M93.9351 24.6421C94.8922 24.621 95.8493 24.6174 96.8064 24.6174C96.81 28.2448 96.8028 31.8722 96.81 35.4996C97.7815 35.549 99.4042 35.7148 99.5878 34.434C99.7137 31.1665 99.6021 27.892 99.6417 24.621C100.592 24.621 101.538 24.621 102.488 24.6245C102.491 28.2554 102.477 31.8863 102.499 35.5137C103.071 35.5137 103.646 35.5208 104.222 35.5349C104.658 35.2491 105.165 34.9174 105.086 34.321C105.132 31.0995 105.097 27.8779 105.1 24.6527C106.079 24.6104 107.058 24.5963 108.036 24.6598C107.964 27.3027 108.04 29.9456 108 32.5885C107.975 34.6386 106.291 36.4876 104.273 36.904C102.776 36.9816 101.261 36.9851 99.7641 36.904C99.6957 36.8299 99.559 36.6852 99.4906 36.6111C97.7383 37.2851 95.7773 36.8158 93.9351 36.9322C93.9459 32.8355 93.9387 28.7388 93.9351 24.6421Z" fill="#222222"/>
<path d="M112.415 24.8395C114.042 24.4725 115.844 24.5078 117.485 24.8148C119.878 25.831 119.115 28.7774 119.227 30.7957C119.058 32.5353 119.738 34.6066 118.475 36.0674C117.312 37.4153 115.369 36.8296 113.811 36.9531C112.235 37.2001 110.721 35.8451 110.767 34.2961C110.728 32.0625 110.76 29.8289 110.753 27.5953C110.688 26.4591 111.304 25.27 112.415 24.8395ZM113.632 27.2389C113.606 29.6807 113.56 32.1295 113.657 34.5713C113.858 35.6511 115.366 35.7322 116.1 35.0971C116.643 33.1175 116.341 31.0604 116.427 29.0385C116.388 28.1458 116.503 27.0448 115.794 26.3638C115.085 25.6334 113.603 26.2403 113.632 27.2389Z" fill="#222222"/>
<path d="M121.95 36.9463C121.947 32.8355 121.954 28.7283 121.947 24.6175C123.915 24.6422 125.883 24.5857 127.851 24.6386C130.795 24.7621 131.36 29.6739 128.679 30.5314C129.391 30.7254 130.294 31.0289 130.316 31.8969C130.374 33.5836 130.334 35.2702 130.32 36.9569C129.399 36.9463 128.477 36.9428 127.556 36.971C127.25 35.4432 127.621 33.8729 127.337 32.3451C127.218 31.7664 126.552 31.664 126.117 31.41C125.707 31.5158 124.721 31.1842 124.771 31.8722C124.739 33.5589 124.775 35.2491 124.764 36.9393C123.825 36.9534 122.886 36.9534 121.95 36.9463ZM124.782 26.0324C124.753 27.3592 124.761 28.6824 124.764 30.0091C125.541 29.9527 126.412 30.1609 127.114 29.7268C127.628 28.7459 127.51 27.5568 127.225 26.5264C127.035 26.4135 126.646 26.1841 126.455 26.0712C125.898 26.0536 125.336 26.043 124.782 26.0324Z" fill="#222222"/>
</svg>
