<svg width="24" height="24" viewBox="0 0 24 24" fill="none" xmlns="http://www.w3.org/2000/svg">
<g opacity="0.5">
<path d="M22.2552 17.3492L18.8335 21.0197C18.7595 21.0994 18.6699 21.163 18.5702 21.2066C18.4705 21.2501 18.363 21.2727 18.2542 21.2728H2.03403C1.95667 21.2727 1.881 21.2501 1.81628 21.2077C1.75157 21.1653 1.70063 21.1049 1.66968 21.034C1.63874 20.963 1.62914 20.8846 1.64207 20.8083C1.65499 20.732 1.68988 20.6611 1.74245 20.6043L5.16028 16.9339C5.23429 16.8542 5.32391 16.7906 5.42359 16.747C5.52325 16.7035 5.63082 16.681 5.73957 16.6808H21.9598C22.0378 16.6792 22.1146 16.7008 22.1805 16.7427C22.2463 16.7847 22.2985 16.8452 22.3299 16.9166C22.3616 16.9881 22.3713 17.0673 22.3579 17.1443C22.3446 17.2212 22.3089 17.2926 22.2552 17.3492ZM18.8335 9.9562C18.7592 9.87685 18.6695 9.81348 18.5699 9.76996C18.4703 9.72645 18.3629 9.70372 18.2542 9.70316H2.03403C1.95667 9.7032 1.881 9.7258 1.81628 9.76822C1.75157 9.81062 1.70063 9.87099 1.66968 9.94193C1.63874 10.0129 1.62914 10.0913 1.64207 10.1676C1.65499 10.2439 1.68988 10.3148 1.74245 10.3716L5.16028 14.0439C5.23456 14.1233 5.32426 14.1867 5.42386 14.2302C5.52346 14.2737 5.6309 14.2964 5.73957 14.297H21.9598C22.037 14.2966 22.1123 14.2737 22.1768 14.2311C22.2413 14.1886 22.2919 14.1282 22.3226 14.0573C22.3533 13.9865 22.3628 13.9082 22.3496 13.8321C22.3367 13.7559 22.3019 13.6852 22.2494 13.6286L18.8335 9.9562ZM2.03403 7.31928H18.2542C18.363 7.31919 18.4705 7.29664 18.5702 7.2531C18.6699 7.20958 18.7595 7.14594 18.8335 7.06622L22.2552 3.39579C22.3089 3.33909 22.3446 3.26777 22.3579 3.19079C22.3713 3.11381 22.3616 3.03461 22.3299 2.96316C22.2985 2.89171 22.2463 2.8312 22.1805 2.78924C22.1146 2.74729 22.0378 2.72577 21.9598 2.72738H5.73957C5.63082 2.72749 5.52325 2.75002 5.42359 2.79356C5.32391 2.8371 5.23429 2.90072 5.16028 2.98045L1.74245 6.65088C1.68988 6.70765 1.65499 6.77855 1.64207 6.85486C1.62914 6.93116 1.63874 7.00958 1.66968 7.08051C1.70063 7.15145 1.75157 7.21182 1.81628 7.25422C1.881 7.29664 1.95667 7.31924 2.03403 7.31928Z" fill="#666666"/>
</g>
</svg>
