<svg width="24" height="24" viewBox="0 0 24 24" fill="none" xmlns="http://www.w3.org/2000/svg">
<g opacity="0.5">
<path d="M11.7273 6.5454C13.6854 6.5454 15.2728 5.56857 15.2728 4.36358C15.2728 3.1586 13.6854 2.18176 11.7273 2.18176C9.76924 2.18176 8.18188 3.1586 8.18188 4.36358C8.18188 5.56857 9.76924 6.5454 11.7273 6.5454Z" fill="#666666"/>
<path d="M11.7273 21.8182C13.6854 21.8182 15.2728 20.8414 15.2728 19.6364C15.2728 18.4314 13.6854 17.4546 11.7273 17.4546C9.76924 17.4546 8.18188 18.4314 8.18188 19.6364C8.18188 20.8414 9.76924 21.8182 11.7273 21.8182Z" fill="#666666"/>
<path d="M6.91403 9.15089C7.88969 7.45745 7.88336 5.62334 6.89988 5.05431C5.9164 4.48527 4.3282 5.39679 3.35254 7.09023C2.37687 8.78368 2.3832 10.6178 3.36668 11.1868C4.35016 11.7559 5.93836 10.8443 6.91403 9.15089Z" fill="#666666"/>
<path d="M20.3215 16.908C21.2972 15.2146 21.2914 13.3808 20.3086 12.8122C19.3258 12.2435 17.7381 13.1553 16.7624 14.8488C15.7868 16.5422 15.7926 18.376 16.7754 18.9447C17.7582 19.5133 19.3459 18.6015 20.3215 16.908Z" fill="#666666"/>
<path d="M6.90037 18.9441C7.88385 18.3751 7.89018 16.541 6.91451 14.8475C5.93885 13.1541 4.35065 12.2426 3.36717 12.8116C2.38369 13.3806 2.37736 15.2147 3.35303 16.9082C4.32869 18.6016 5.91689 19.5131 6.90037 18.9441Z" fill="#666666"/>
<path d="M20.3096 11.1872C21.2924 10.6186 21.2982 8.78479 20.3225 7.09134C19.3468 5.39789 17.7592 4.48607 16.7764 5.05472C15.7936 5.62337 15.7878 7.45716 16.7634 9.15061C17.7391 10.8441 19.3268 11.7559 20.3096 11.1872Z" fill="#666666"/>
</g>
</svg>
