<svg width="24" height="24" viewBox="0 0 24 24" fill="none" xmlns="http://www.w3.org/2000/svg">
<g opacity="0.5">
<path d="M18.7283 4.83362H5.25708V17.0773H18.7283V4.83362Z" fill="white"/>
<path fill-rule="evenodd" clip-rule="evenodd" d="M22.3637 12C22.3637 17.7237 17.7238 22.3636 12.0001 22.3636C6.27643 22.3636 1.63647 17.7237 1.63647 12C1.63647 6.27631 6.27643 1.63635 12.0001 1.63635C17.7238 1.63635 22.3637 6.27631 22.3637 12ZM9.06335 16.1242H7.05206C6.62943 16.1242 6.42067 16.1242 6.29338 16.0428C6.15589 15.9536 6.07188 15.806 6.06169 15.643C6.05405 15.4929 6.15844 15.3095 6.36721 14.9429L11.3333 6.18938C11.5446 5.81767 11.6516 5.63182 11.7865 5.56308C11.9316 5.48925 12.1048 5.48925 12.2499 5.56308C12.3848 5.63182 12.4917 5.81767 12.703 6.18938L13.724 7.97154L13.7292 7.98064C13.9574 8.37941 14.0732 8.58163 14.1237 8.79387C14.1797 9.02556 14.1797 9.26996 14.1237 9.50165C14.0728 9.7155 13.9582 9.91919 13.7265 10.324L11.1179 14.9352L11.1112 14.947C10.8814 15.3491 10.765 15.5529 10.6037 15.7066C10.428 15.8747 10.2167 15.9968 9.98498 16.0657C9.77367 16.1242 9.5369 16.1242 9.06335 16.1242ZM14.1425 16.1242H17.0245C17.4496 16.1242 17.6635 16.1242 17.7909 16.0403C17.9284 15.9511 18.0149 15.8009 18.0226 15.638C18.0299 15.4927 17.9278 15.3165 17.7277 14.9712C17.7208 14.9594 17.7139 14.9475 17.7069 14.9353L16.2633 12.4657L16.2469 12.4379C16.044 12.0949 15.9416 11.9217 15.8101 11.8547C15.6651 11.7809 15.4944 11.7809 15.3493 11.8547C15.2169 11.9234 15.11 12.1042 14.8987 12.4683L13.4602 14.9378L13.4553 14.9463C13.2447 15.3098 13.1395 15.4915 13.1471 15.6405C13.1573 15.8035 13.2413 15.9536 13.3787 16.0428C13.5035 16.1242 13.7174 16.1242 14.1425 16.1242Z" fill="#666666"/>
</g>
</svg>
