<svg width="392" height="360" viewBox="0 0 392 360" fill="none" xmlns="http://www.w3.org/2000/svg">
<path d="M77.0684 58.6992C82.9263 52.8413 92.4237 52.8413 98.2816 58.6992L133.063 93.4804C138.921 99.3382 138.921 108.836 133.063 114.694L98.2816 149.475C92.4238 155.333 82.9263 155.333 77.0684 149.475L42.2872 114.694C36.4293 108.836 36.4293 99.3383 42.2872 93.4804L77.0684 58.6992Z" fill="#E3B4FA"/>
<path d="M135.446 24.6066C141.303 18.7488 150.801 18.7488 156.659 24.6067L179.298 47.2457C185.156 53.1036 185.156 62.601 179.298 68.4589L156.659 91.0979C150.801 96.9558 141.303 96.9558 135.446 91.0979L112.806 68.4589C106.949 62.601 106.949 53.1036 112.806 47.2457L135.446 24.6066Z" fill="#E3B4FA"/>
<path d="M336.955 71.9181C340.846 68.0273 347.154 68.0273 351.045 71.9181L366.082 86.9551C369.973 90.8459 369.973 97.1541 366.082 101.045L351.045 116.082C347.154 119.973 340.846 119.973 336.955 116.082L321.918 101.045C318.027 97.1541 318.027 90.8459 321.918 86.9551L336.955 71.9181Z" fill="#E3B4FA"/>
<path d="M193.823 58.6992C199.681 52.8413 209.178 52.8413 215.036 58.6992L249.817 93.4804C255.675 99.3382 255.675 108.836 249.817 114.694L215.036 149.475C209.178 155.333 199.681 155.333 193.823 149.475L159.042 114.694C153.184 108.836 153.184 99.3383 159.042 93.4804L193.823 58.6992Z" fill="#E3B4FA"/>
<rect opacity="0.9" x="250.566" y="118.711" width="61.8771" height="61.8771" rx="15" transform="rotate(45 250.566 118.711)" fill="#E3B4FA"/>
<path d="M193.823 175.454C199.681 169.596 209.178 169.596 215.036 175.454L249.817 210.235C255.675 216.093 255.675 225.59 249.817 231.448L215.036 266.229C209.178 272.087 199.681 272.087 193.823 266.229L159.042 231.448C153.184 225.59 153.184 216.093 159.042 210.235L193.823 175.454Z" fill="#E3B4FA"/>
<path d="M135.445 233.831C141.303 227.973 150.801 227.973 156.658 233.831L182.568 259.741C188.426 265.599 188.426 275.097 182.568 280.954L156.658 306.864C150.801 312.722 141.303 312.722 135.445 306.864L109.535 280.954C103.677 275.097 103.677 265.599 109.535 259.741L135.445 233.831Z" fill="#E3B4FA"/>
<path d="M35.5394 133.925C41.3973 128.067 50.8948 128.067 56.7526 133.925L74.6855 151.858C80.5434 157.716 80.5434 167.213 74.6855 173.071L56.7526 191.004C50.8948 196.862 41.3973 196.862 35.5394 191.004L17.6065 173.071C11.7487 167.213 11.7487 157.716 17.6065 151.858L35.5394 133.925Z" fill="#B4DCFA"/>
<rect x="146.052" y="106.47" width="79.1881" height="79.1881" rx="15" transform="rotate(45 146.052 106.47)" fill="white"/>
<path d="M135.445 117.077C141.303 111.219 150.8 111.219 156.658 117.077L191.44 151.858C197.297 157.716 197.297 167.213 191.44 173.071L156.658 207.852C150.8 213.71 141.303 213.71 135.445 207.852L100.664 173.071C94.806 167.213 94.806 157.716 100.664 151.858L135.445 117.077Z" fill="#E3B4FA"/>
<path d="M77.0684 175.454C82.9263 169.596 92.4237 169.596 98.2816 175.454L133.063 210.235C138.921 216.093 138.921 225.59 133.063 231.448L98.2816 266.229C92.4238 272.087 82.9263 272.087 77.0684 266.229L42.2872 231.448C36.4293 225.59 36.4293 216.093 42.2872 210.235L77.0684 175.454Z" fill="#E3B4FA"/>
<path fill-rule="evenodd" clip-rule="evenodd" d="M239.458 30.5C268.177 30.5 291.458 53.7812 291.458 82.5L291.458 139L278.458 139L278.458 82.5C278.458 60.9609 260.997 43.5 239.458 43.5C217.919 43.5 200.458 60.9609 200.458 82.5L200.458 139L187.458 139L187.458 82.5C187.458 53.7812 210.739 30.5 239.458 30.5Z" fill="#222222"/>
<path d="M150 186.2C150 165.478 150 155.117 154.033 147.202C157.58 140.24 163.24 134.58 170.202 131.033C178.117 127 188.478 127 209.2 127H277.8C298.522 127 308.883 127 316.798 131.033C323.76 134.58 329.42 140.24 332.967 147.202C337 155.117 337 165.478 337 186.2V231.8C337 252.522 337 262.883 332.967 270.798C329.42 277.76 323.76 283.42 316.798 286.967C308.883 291 298.522 291 277.8 291H209.2C188.478 291 178.117 291 170.202 286.967C163.24 283.42 157.58 277.76 154.033 270.798C150 262.883 150 252.522 150 231.8V186.2Z" fill="#222222"/>
<path d="M146 182.2C146 161.478 146 151.117 150.033 143.202C153.58 136.24 159.24 130.58 166.202 127.033C174.117 123 184.478 123 205.2 123H273.8C294.522 123 304.883 123 312.798 127.033C319.76 130.58 325.42 136.24 328.967 143.202C333 151.117 333 161.478 333 182.2V227.8C333 248.522 333 258.883 328.967 266.798C325.42 273.76 319.76 279.42 312.798 282.967C304.883 287 294.522 287 273.8 287H205.2C184.478 287 174.117 287 166.202 282.967C159.24 279.42 153.58 273.76 150.033 266.798C146 258.883 146 248.522 146 227.8V182.2Z" fill="white"/>
<path fill-rule="evenodd" clip-rule="evenodd" d="M273.8 126H205.2C194.79 126 187.162 126.002 181.143 126.494C175.158 126.983 171.028 127.941 167.564 129.706C161.167 132.965 155.965 138.167 152.706 144.564C150.941 148.028 149.983 152.158 149.494 158.143C149.002 164.162 149 171.79 149 182.2V227.8C149 238.21 149.002 245.838 149.494 251.857C149.983 257.842 150.941 261.972 152.706 265.436C155.965 271.833 161.167 277.035 167.564 280.294C171.028 282.059 175.158 283.017 181.143 283.506C187.162 283.998 194.79 284 205.2 284H273.8C284.21 284 291.838 283.998 297.857 283.506C303.842 283.017 307.972 282.059 311.436 280.294C317.833 277.035 323.035 271.833 326.294 265.436C328.059 261.972 329.017 257.842 329.506 251.857C329.998 245.838 330 238.21 330 227.8V182.2C330 171.79 329.998 164.162 329.506 158.143C329.017 152.158 328.059 148.028 326.294 144.564C323.035 138.167 317.833 132.965 311.436 129.706C307.972 127.941 303.842 126.983 297.857 126.494C291.838 126.002 284.21 126 273.8 126ZM150.033 143.202C146 151.117 146 161.478 146 182.2V227.8C146 248.522 146 258.883 150.033 266.798C153.58 273.76 159.24 279.42 166.202 282.967C174.117 287 184.478 287 205.2 287H273.8C294.522 287 304.883 287 312.798 282.967C319.76 279.42 325.42 273.76 328.967 266.798C333 258.883 333 248.522 333 227.8V182.2C333 161.478 333 151.117 328.967 143.202C325.42 136.24 319.76 130.58 312.798 127.033C304.883 123 294.522 123 273.8 123H205.2C184.478 123 174.117 123 166.202 127.033C159.24 130.58 153.58 136.24 150.033 143.202Z" fill="#222222"/>
<path d="M217 209C217 197.954 225.954 189 237 189H365C376.046 189 385 197.954 385 209V219C385 230.046 376.046 239 365 239H237C225.954 239 217 230.046 217 219V209Z" fill="#B4DCFA"/>
<path d="M212 201C212 189.954 220.954 181 232 181H360C371.046 181 380 189.954 380 201V211C380 222.046 371.046 231 360 231H232C220.954 231 212 222.046 212 211V201Z" fill="white"/>
<path d="M208 193C208 181.954 216.954 173 228 173H356C367.046 173 376 181.954 376 193V203C376 214.046 367.046 223 356 223H228C216.954 223 208 214.046 208 203V193Z" fill="#FFCD9F"/>
<path d="M72.4174 16.0706C75.9458 14.1989 79.7681 18.0211 77.8963 21.5496L74.9602 27.0844C74.3302 28.2721 74.3302 29.6949 74.9602 30.8825L77.8964 36.4174C79.7681 39.9458 75.9458 43.7681 72.4174 41.8963L66.8825 38.9602C65.6949 38.3302 64.2721 38.3302 63.0844 38.9602L57.5496 41.8964C54.0211 43.7681 50.1989 39.9458 52.0706 36.4174L55.0068 30.8825C55.6368 29.6949 55.6368 28.2721 55.0068 27.0844L52.0706 21.5496C50.1989 18.0211 54.0211 14.1989 57.5496 16.0706L63.0844 19.0068C64.2721 19.6368 65.6949 19.6368 66.8825 19.0068L72.4174 16.0706Z" fill="#FFCBAE"/>
<path d="M230.243 318.447L205.357 325.35C201.674 326.371 201.384 331.482 204.928 332.913L206.506 333.551C212.457 335.954 217.197 340.64 219.669 346.563L220.659 348.937C222.122 352.443 227.189 352.127 228.205 348.466L235.166 323.37C235.998 320.373 233.24 317.615 230.243 318.447Z" fill="#B4DCFA"/>
<circle cx="240" cy="199" r="7" fill="#222222"/>
<circle cx="266" cy="199" r="7" fill="#222222"/>
<circle cx="292" cy="199" r="7" fill="#222222"/>
<circle cx="318" cy="199" r="7" fill="#222222"/>
<circle cx="344" cy="199" r="7" fill="#222222"/>
</svg>
