<svg width="85" height="21" viewBox="0 0 85 21" fill="none" xmlns="http://www.w3.org/2000/svg">
<path d="M3.36016 12.4933C2.79424 12.4933 2.35801 12.3902 2.05147 12.1841C1.75279 11.9779 1.52878 11.7479 1.37944 11.4941H1.19079V12.3268H0V4H1.21437V7.25935H1.40302C1.49734 7.10074 1.6231 6.95007 1.7803 6.80732C1.9375 6.65665 2.14579 6.53373 2.40517 6.43856C2.66455 6.3434 2.98288 6.29582 3.36016 6.29582C3.84749 6.29582 4.29551 6.41477 4.70423 6.65268C5.11295 6.89059 5.43914 7.23556 5.6828 7.68758C5.92646 8.13961 6.04829 8.67887 6.04829 9.30536V9.48379C6.04829 10.1182 5.92253 10.6614 5.67101 11.1135C5.42735 11.5576 5.10116 11.8986 4.69244 12.1365C4.29158 12.3744 3.84749 12.4933 3.36016 12.4933ZM3.00646 11.4227C3.53308 11.4227 3.96539 11.2522 4.30337 10.9112C4.64921 10.5702 4.82213 10.0825 4.82213 9.4481V9.34105C4.82213 8.71455 4.65314 8.23081 4.31516 7.8898C3.97718 7.5488 3.54094 7.3783 3.00646 7.3783C2.4877 7.3783 2.0554 7.5488 1.70956 7.8898C1.37158 8.23081 1.20258 8.71455 1.20258 9.34105V9.4481C1.20258 10.0825 1.37158 10.5702 1.70956 10.9112C2.0554 11.2522 2.4877 11.4227 3.00646 11.4227Z" fill="white"/>
<path d="M8.22503 14.7059V13.6353H11.4673C11.6874 13.6353 11.7974 13.5163 11.7974 13.2784V11.4703H11.6088C11.538 11.6289 11.428 11.7836 11.2787 11.9342C11.1372 12.077 10.9446 12.1959 10.7009 12.2911C10.4573 12.3863 10.1507 12.4339 9.78132 12.4339C9.34116 12.4339 8.94815 12.3347 8.60231 12.1365C8.25647 11.9382 7.9853 11.6567 7.7888 11.2919C7.5923 10.9271 7.49405 10.4949 7.49405 9.99529V6.46235H8.70842V9.90013C8.70842 10.4077 8.83418 10.7844 9.0857 11.0302C9.33723 11.2681 9.687 11.3871 10.135 11.3871C10.6302 11.3871 11.0271 11.2205 11.3258 10.8875C11.6324 10.5544 11.7856 10.0706 11.7856 9.43621V6.46235H13V13.5282C13 13.8851 12.8939 14.1706 12.6817 14.3847C12.4773 14.5988 12.1943 14.7059 11.8328 14.7059H8.22503Z" fill="white"/>
<path d="M22 0.153809H27.3549C28.3363 0.153809 29.3249 0.285746 30.3203 0.54962C31.2905 0.80119 32.2037 1.24575 33.0084 1.85831C33.8051 2.46648 34.4518 3.26564 34.9499 4.25454C35.4479 5.2447 35.6965 6.47234 35.6965 7.9381C35.6965 9.30146 35.4479 10.4744 34.9499 11.4564C34.4518 12.4384 33.8051 13.2451 33.0084 13.8753C32.2047 14.5095 31.293 14.9832 30.3203 15.2719C29.3578 15.5673 28.3592 15.719 27.3549 15.7224H22V0.153809ZM26.9282 13.3036C27.6249 13.3036 28.3222 13.2194 29.0189 13.051C29.6957 12.8915 30.3366 12.6002 30.9073 12.1928C31.4687 11.79 31.9277 11.2441 32.2831 10.5549C32.6384 9.86564 32.8164 8.9936 32.8164 7.9381C32.8164 6.82418 32.6384 5.91507 32.2831 5.2114C31.9277 4.50774 31.4687 3.958 30.9067 3.56219C30.3369 3.16292 29.6949 2.8862 29.0189 2.74857C28.331 2.60292 27.6305 2.52924 26.9282 2.52868H24.6881V13.3036H26.9282ZM36.3024 5.16742H39.1399L41.9987 12.8418H42.0413L44.5801 5.16742H47.2469L42.404 17.9873C42.2193 18.4711 42.02 18.8996 41.8067 19.2734C41.6057 19.632 41.3458 19.952 41.0386 20.2189C40.727 20.4828 40.3681 20.6809 39.9823 20.802C39.5769 20.9339 39.0899 20.9999 38.5212 20.9999C38.3079 20.9999 38.0909 20.9892 37.8708 20.9672C37.6501 20.9446 37.4258 20.9044 37.1985 20.846L37.4118 18.5591C37.5825 18.6175 37.7495 18.6577 37.9135 18.6803C38.0768 18.7023 38.2298 18.713 38.3719 18.713C38.6419 18.713 38.8699 18.6803 39.0545 18.6143C39.2392 18.5477 39.3959 18.4453 39.5239 18.3065C39.6617 18.1524 39.7768 17.9781 39.8652 17.7894C39.9646 17.584 40.0713 17.3421 40.1853 17.0638L40.6973 15.7224L36.3024 5.16742ZM54.061 7.98208C53.8337 7.67423 53.5203 7.40659 53.1223 7.17978C52.7242 6.95248 52.276 6.83497 51.8209 6.83863C51.4291 6.83378 51.0418 6.92418 50.6902 7.1025C50.3489 7.27842 50.1782 7.57182 50.1782 7.98208C50.1782 8.39235 50.3672 8.68198 50.7439 8.85098C51.1206 9.01936 51.6716 9.19151 52.3969 9.36742C52.781 9.45538 53.1686 9.57287 53.5594 9.71926C53.9401 9.86024 54.2993 10.0566 54.6261 10.3023C54.9467 10.5442 55.2057 10.8445 55.4051 11.2032C55.6044 11.5626 55.7037 11.9986 55.7037 12.5119C55.7037 13.1572 55.5867 13.7031 55.3514 14.1505C55.1273 14.5852 54.8054 14.9583 54.4127 15.2386C54.022 15.517 53.5667 15.7186 53.0473 15.8437C52.5286 15.9681 51.9916 16.0303 51.4369 16.0303C50.6413 16.0303 49.8526 15.8773 49.1115 15.5792C48.3575 15.2788 47.7321 14.8504 47.2341 14.2931L48.9195 12.6659C49.2041 13.0472 49.5735 13.362 50.0289 13.6114C50.4842 13.8608 50.9889 13.9852 51.5436 13.9852C51.7283 13.9852 51.9166 13.9632 52.1086 13.9193C52.3012 13.8753 52.4786 13.8062 52.642 13.7107C52.806 13.6152 52.9376 13.487 53.037 13.3255C53.1363 13.1641 53.1863 12.9662 53.1863 12.7318C53.1863 12.292 52.9913 11.9766 52.5999 11.7863C52.2086 11.5959 51.6216 11.4049 50.8396 11.2145C50.4555 11.1266 50.0825 11.0135 49.7192 10.8734C49.3706 10.7422 49.0434 10.557 48.7488 10.3243C48.464 10.0967 48.231 9.80761 48.0661 9.47737C47.8954 9.13999 47.8101 8.72219 47.8101 8.22397C47.8101 7.63779 47.9271 7.13203 48.1618 6.70669C48.3893 6.28956 48.707 5.93204 49.0901 5.66187C49.487 5.3848 49.9273 5.18034 50.3915 5.05748C50.8789 4.92504 51.3809 4.85851 51.8849 4.85957C52.6243 4.85957 53.346 4.99151 54.0507 5.25538C54.7547 5.51926 55.3124 5.92261 55.7251 6.46481L54.061 7.98208ZM57.5897 5.16742H60.0218V6.86062H60.0645C60.2918 6.33287 60.6862 5.86795 61.2488 5.46397C61.8102 5.06124 62.4752 4.85957 63.2432 4.85957C63.9119 4.85957 64.4843 4.9802 64.961 5.22208C65.4164 5.44684 65.8173 5.77378 66.1343 6.17894C66.4397 6.57475 66.664 7.02899 66.8061 7.54229C66.9481 8.05559 67.0194 8.58334 67.0194 9.12554V15.7224H64.4593V9.87318C64.4593 9.56533 64.438 9.24303 64.3953 8.90564C64.3582 8.58635 64.2641 8.27686 64.118 7.99276C63.9777 7.72392 63.7765 7.49395 63.5316 7.3224C63.2823 7.14648 62.9519 7.05852 62.5392 7.05852C62.1266 7.05852 61.7712 7.14271 61.4725 7.31109C61.1738 7.48009 60.9288 7.69622 60.7368 7.96009C60.5442 8.22397 60.3985 8.52805 60.2991 8.87297C60.2004 9.21171 60.1501 9.56347 60.1498 9.91716V15.7224H57.5897V5.16742ZM69.716 5.16742H72.2761V15.7224H69.716V5.16742Z" fill="white"/>
<path d="M69.3534 1.58325C69.3534 1.15791 69.5058 0.787854 69.8124 0.472461C70.1178 0.157696 70.5054 0 70.9748 0C71.4441 0 71.8385 0.150785 72.1591 0.4511C72.4792 0.751414 72.6389 1.12901 72.6389 1.58325C72.6389 2.03749 72.4792 2.41508 72.1591 2.71539C71.8385 3.01634 71.4441 3.16649 70.9748 3.16649C70.5054 3.16649 70.1178 3.00942 69.8124 2.6934C69.5064 2.37864 69.3534 2.00859 69.3534 1.58325Z" fill="#FF4A35"/>
<path d="M77.661 10.1151L73.9702 5.16748H77.0423L79.2611 8.44392L81.5438 5.16748H84.488L80.8185 10.1151L85 15.7225H81.8852L79.2184 11.8743L76.5303 15.7225H73.5009L77.661 10.1151Z" fill="white"/>
</svg>
