<svg width="140" height="40" viewBox="0 0 140 40" fill="none" xmlns="http://www.w3.org/2000/svg">
<path d="M59.1855 9.20915C57.9325 7.21117 59.3686 4.61523 61.727 4.61523H127.415C129.935 4.61523 132.26 5.96976 133.504 8.16172L138.321 16.6551C139.363 18.4911 139.363 20.7393 138.321 22.5754L133.504 31.0688C132.26 33.2607 129.935 34.6152 127.415 34.6152H61.727C59.3686 34.6152 57.9325 32.0193 59.1855 30.0213L64.712 21.2091C65.3232 20.2344 65.3232 18.996 64.712 18.0213L59.1855 9.20915Z" fill="white"/>
<path d="M0 7.26222H7.49513C9.13043 7.26222 10.5159 7.54502 11.6515 8.11063C12.7872 8.67625 13.6502 9.51335 14.2408 10.6219C14.8426 11.7192 15.1436 13.0824 15.1436 14.7113C15.1436 15.9443 14.9562 17.0303 14.5814 17.9692C14.218 18.9081 13.69 19.7 12.9972 20.3448C12.3045 20.9783 11.4698 21.4704 10.4932 21.821L9.28374 22.4828H2.94695L2.92992 19.0213H7.39293C8.19922 19.0213 8.86924 18.8459 9.40298 18.4952C9.93673 18.1446 10.3342 17.6581 10.5954 17.036C10.8679 16.4138 11.0042 15.7068 11.0042 14.9149C11.0042 14.0665 10.885 13.3312 10.6465 12.7091C10.408 12.0756 10.0333 11.5891 9.52223 11.2498C9.01119 10.8991 8.3355 10.7238 7.49513 10.7238H4.13936V31.9681H0V7.26222ZM11.5493 31.9681L6.83079 20.8708L11.1405 20.8538L15.9783 31.7475V31.9681H11.5493Z" fill="white"/>
<path d="M27.1188 22.8052H21.8892V19.3606H27.1188C27.9705 19.3606 28.6575 19.1796 29.1799 18.8176C29.7137 18.4557 30.0998 17.9579 30.3383 17.3244C30.5881 16.691 30.713 15.9726 30.713 15.1695C30.713 14.4002 30.5881 13.6762 30.3383 12.9975C30.0998 12.3188 29.7193 11.7701 29.1969 11.3516C28.6746 10.933 27.9818 10.7238 27.1188 10.7238H23.0475V31.9681H18.9252V7.26222H27.1188C28.7541 7.26222 30.1509 7.60158 31.3092 8.28032C32.4676 8.95905 33.3533 9.89231 33.9666 11.0801C34.5798 12.2566 34.8864 13.6084 34.8864 15.1355C34.8864 16.7305 34.5798 18.0993 33.9666 19.2419C33.3533 20.3844 32.4676 21.2667 31.3092 21.8889C30.1509 22.4998 28.7541 22.8052 27.1188 22.8052Z" fill="white"/>
<path d="M50.6432 23.9081H54.7656C54.6861 25.6955 54.3227 27.217 53.6754 28.4726C53.0281 29.717 52.0969 30.6672 50.8817 31.3233C49.678 31.9794 48.2073 32.3075 46.4698 32.3075C45.1525 32.3075 43.9714 32.0699 42.9267 31.5948C41.8932 31.1197 41.0131 30.4353 40.2863 29.5416C39.5595 28.6367 39.0031 27.5337 38.617 26.2328C38.2422 24.9319 38.0548 23.4557 38.0548 21.8041V17.4262C38.0548 15.7747 38.2479 14.2984 38.634 12.9975C39.0315 11.6966 39.5993 10.5937 40.3374 9.68869C41.0756 8.78371 41.9727 8.09932 43.0289 7.63552C44.0964 7.16041 45.3001 6.92285 46.6402 6.92285C48.355 6.92285 49.7972 7.25091 50.9669 7.90701C52.1366 8.56312 53.0394 9.52466 53.6754 10.7916C54.3113 12.0586 54.6804 13.6027 54.7826 15.424H50.6603C50.6035 14.191 50.4332 13.2068 50.1493 12.4715C49.8767 11.7249 49.4565 11.1876 48.8887 10.8595C48.3322 10.5314 47.5827 10.3674 46.6402 10.3674C45.8566 10.3674 45.1809 10.5145 44.6131 10.8086C44.0566 11.1027 43.5967 11.5439 43.2333 12.1321C42.8812 12.7091 42.6144 13.4387 42.4327 14.321C42.2623 15.1921 42.1772 16.2158 42.1772 17.3923V21.8041C42.1772 22.9353 42.251 23.9364 42.3986 24.8075C42.5462 25.6785 42.7847 26.4195 43.114 27.0303C43.4434 27.6299 43.8806 28.088 44.4257 28.4048C44.9708 28.7102 45.6522 28.8629 46.4698 28.8629C47.4465 28.8629 48.2244 28.7102 48.8035 28.4048C49.3941 28.0993 49.8313 27.5846 50.1152 26.8606C50.3991 26.1367 50.5751 25.1525 50.6432 23.9081Z" fill="white"/>
<path d="M73.8044 27.2504V11.7058H83.4691V14.3706H76.7038V18.1235H82.942V20.7883H76.7038V27.2504H73.8044Z" fill="#E3B4FA"/>
<path d="M122.994 27.2502V14.2938H118.486V11.6132H130.418V14.2938H125.91V27.2502H122.994Z" fill="#E3B4FA"/>
<path d="M91.7917 27.2504C90.7377 27.2504 89.7931 27.0695 88.9579 26.7076C88.1426 26.3457 87.4863 25.8129 86.9892 25.1092C86.5119 24.4056 86.2733 23.5511 86.2733 22.5459C86.2733 21.5206 86.5119 20.6762 86.9892 20.0127C87.4863 19.3291 88.1525 18.8165 88.9877 18.4747C89.8428 18.1329 90.8073 17.962 91.8812 17.962H96.3556V16.997C96.3556 16.1325 96.097 15.4389 95.58 14.9162C95.063 14.3934 94.2675 14.1321 93.1937 14.1321C92.1397 14.1321 91.3343 14.3834 90.7775 14.886C90.2207 15.3886 89.8528 16.042 89.6738 16.8462L86.8102 15.9113C87.0488 15.1072 87.4267 14.3834 87.9437 13.74C88.4806 13.0766 89.1866 12.5438 90.0616 12.1417C90.9366 11.7396 91.9905 11.5386 93.2235 11.5386C95.1326 11.5386 96.634 12.0311 97.7277 13.0163C98.8214 14.0014 99.3683 15.3987 99.3683 17.2081V23.33C99.3683 23.9331 99.6467 24.2347 100.204 24.2347H101.456V26.8282H99.1595C98.4635 26.8282 97.8967 26.6473 97.4592 26.2854C97.0217 25.9235 96.803 25.4309 96.803 24.8077V24.7172H96.3556C96.1965 25.0188 95.9578 25.3706 95.6397 25.7727C95.3215 26.1748 94.8542 26.5266 94.2377 26.8282C93.6212 27.1097 92.8059 27.2504 91.7917 27.2504ZM92.2391 24.687C93.4721 24.687 94.4664 24.3352 95.222 23.6315C95.9777 22.9078 96.3556 21.9226 96.3556 20.6762V20.3746H92.0601C91.2448 20.3746 90.5886 20.5555 90.0914 20.9174C89.5943 21.2592 89.3457 21.7719 89.3457 22.4554C89.3457 23.139 89.6042 23.6818 90.1212 24.0839C90.6383 24.486 91.3442 24.687 92.2391 24.687Z" fill="#E3B4FA"/>
<path d="M110.353 27.2504C108.483 27.2504 106.932 26.8282 105.699 25.9838C104.466 25.1394 103.711 23.8628 103.432 22.1539L106.296 21.4602C106.455 22.2845 106.723 22.9379 107.101 23.4204C107.479 23.903 107.946 24.2447 108.503 24.4458C109.08 24.6468 109.696 24.7474 110.353 24.7474C111.327 24.7474 112.073 24.5564 112.59 24.1744C113.127 23.7924 113.395 23.2998 113.395 22.6967C113.395 22.0935 113.147 21.6512 112.65 21.3698C112.152 21.0883 111.417 20.8571 110.442 20.6762L109.428 20.4952C108.434 20.3143 107.529 20.0529 106.714 19.7111C105.898 19.3694 105.252 18.8969 104.775 18.2938C104.297 17.6906 104.059 16.9166 104.059 15.9717C104.059 14.5643 104.576 13.4787 105.61 12.7147C106.644 11.9306 108.016 11.5386 109.726 11.5386C111.377 11.5386 112.729 11.9206 113.783 12.6845C114.857 13.4284 115.553 14.4437 115.871 15.7304L113.007 16.5446C112.829 15.6399 112.451 15.0066 111.874 14.6447C111.297 14.2628 110.581 14.0718 109.726 14.0718C108.891 14.0718 108.235 14.2326 107.758 14.5543C107.28 14.8558 107.042 15.2881 107.042 15.851C107.042 16.4542 107.27 16.8965 107.728 17.1779C108.205 17.4594 108.841 17.6705 109.637 17.8112L110.681 17.9922C111.735 18.1731 112.699 18.4244 113.574 18.7461C114.449 19.0678 115.135 19.5302 115.632 20.1333C116.15 20.7365 116.408 21.5407 116.408 22.5459C116.408 24.0336 115.861 25.1897 114.767 26.014C113.674 26.8382 112.202 27.2504 110.353 27.2504Z" fill="#E3B4FA"/>
<path d="M70.761 27.2504V11.7058H80.4257V14.3706H73.6604V18.1235H79.8985V20.7883H73.6604V27.2504H70.761Z" fill="#FFCBAE"/>
<path d="M119.95 27.2502V14.2938H115.443V11.6132H127.374V14.2938H122.867V27.2502H119.95Z" fill="#FFCBAE"/>
<path d="M88.7482 27.2504C87.6943 27.2504 86.7497 27.0695 85.9144 26.7076C85.0991 26.3457 84.4429 25.8129 83.9457 25.1092C83.4684 24.4056 83.2298 23.5511 83.2298 22.5459C83.2298 21.5206 83.4684 20.6762 83.9457 20.0127C84.4429 19.3291 85.1091 18.8165 85.9443 18.4747C86.7994 18.1329 87.7639 17.962 88.8377 17.962H93.3121V16.997C93.3121 16.1325 93.0536 15.4389 92.5365 14.9162C92.0195 14.3934 91.2241 14.1321 90.1502 14.1321C89.0962 14.1321 88.2908 14.3834 87.734 14.886C87.1772 15.3886 86.8093 16.042 86.6303 16.8462L83.7667 15.9113C84.0054 15.1072 84.3832 14.3834 84.9003 13.74C85.4372 13.0766 86.1431 12.5438 87.0181 12.1417C87.8931 11.7396 88.9471 11.5386 90.18 11.5386C92.0891 11.5386 93.5905 12.0311 94.6842 13.0163C95.778 14.0014 96.3249 15.3987 96.3249 17.2081V23.33C96.3249 23.9331 96.6033 24.2347 97.1601 24.2347H98.4129V26.8282H96.1161C95.42 26.8282 94.8533 26.6473 94.4158 26.2854C93.9783 25.9235 93.7595 25.4309 93.7595 24.8077V24.7172H93.3121C93.153 25.0188 92.9144 25.3706 92.5962 25.7727C92.278 26.1748 91.8107 26.5266 91.1942 26.8282C90.5778 27.1097 89.7624 27.2504 88.7482 27.2504ZM89.1957 24.687C90.4286 24.687 91.4229 24.3352 92.1786 23.6315C92.9343 22.9078 93.3121 21.9226 93.3121 20.6762V20.3746H89.0167C88.2014 20.3746 87.5451 20.5555 87.048 20.9174C86.5508 21.2592 86.3022 21.7719 86.3022 22.4554C86.3022 23.139 86.5607 23.6818 87.0778 24.0839C87.5948 24.486 88.3008 24.687 89.1957 24.687Z" fill="#FFCBAE"/>
<path d="M107.309 27.2504C105.44 27.2504 103.889 26.8282 102.656 25.9838C101.423 25.1394 100.667 23.8628 100.389 22.1539L103.252 21.4602C103.412 22.2845 103.68 22.9379 104.058 23.4204C104.436 23.903 104.903 24.2447 105.46 24.4458C106.037 24.6468 106.653 24.7474 107.309 24.7474C108.284 24.7474 109.029 24.5564 109.546 24.1744C110.083 23.7924 110.352 23.2998 110.352 22.6967C110.352 22.0935 110.103 21.6512 109.606 21.3698C109.109 21.0883 108.373 20.8571 107.399 20.6762L106.385 20.4952C105.39 20.3143 104.485 20.0529 103.67 19.7111C102.855 19.3694 102.208 18.8969 101.731 18.2938C101.254 17.6906 101.015 16.9166 101.015 15.9717C101.015 14.5643 101.532 13.4787 102.566 12.7147C103.6 11.9306 104.973 11.5386 106.683 11.5386C108.333 11.5386 109.686 11.9206 110.74 12.6845C111.813 13.4284 112.509 14.4437 112.828 15.7304L109.964 16.5446C109.785 15.6399 109.407 15.0066 108.831 14.6447C108.254 14.2628 107.538 14.0718 106.683 14.0718C105.848 14.0718 105.191 14.2326 104.714 14.5543C104.237 14.8558 103.998 15.2881 103.998 15.851C103.998 16.4542 104.227 16.8965 104.684 17.1779C105.162 17.4594 105.798 17.6705 106.593 17.8112L107.637 17.9922C108.691 18.1731 109.656 18.4244 110.531 18.7461C111.406 19.0678 112.092 19.5302 112.589 20.1333C113.106 20.7365 113.365 21.5407 113.365 22.5459C113.365 24.0336 112.818 25.1897 111.724 26.014C110.63 26.8382 109.159 27.2504 107.309 27.2504Z" fill="#FFCBAE"/>
<path d="M72.2827 27.2504V11.7058H81.9474V14.3706H75.1821V18.1235H81.4202V20.7883H75.1821V27.2504H72.2827Z" fill="#222222"/>
<path d="M121.472 27.2502V14.2938H116.964V11.6132H128.896V14.2938H124.388V27.2502H121.472Z" fill="#222222"/>
<path d="M90.27 27.2504C89.216 27.2504 88.2714 27.0695 87.4362 26.7076C86.6208 26.3457 85.9646 25.8129 85.4674 25.1092C84.9902 24.4056 84.7515 23.5511 84.7515 22.5459C84.7515 21.5206 84.9902 20.6762 85.4674 20.0127C85.9646 19.3291 86.6308 18.8165 87.466 18.4747C88.3211 18.1329 89.2856 17.962 90.3594 17.962H94.8338V16.997C94.8338 16.1325 94.5753 15.4389 94.0583 14.9162C93.5412 14.3934 92.7458 14.1321 91.6719 14.1321C90.618 14.1321 89.8126 14.3834 89.2558 14.886C88.6989 15.3886 88.3311 16.042 88.1521 16.8462L85.2885 15.9113C85.5271 15.1072 85.9049 14.3834 86.422 13.74C86.9589 13.0766 87.6649 12.5438 88.5399 12.1417C89.4148 11.7396 90.4688 11.5386 91.7018 11.5386C93.6108 11.5386 95.1122 12.0311 96.206 13.0163C97.2997 14.0014 97.8466 15.3987 97.8466 17.2081V23.33C97.8466 23.9331 98.125 24.2347 98.6818 24.2347H99.9346V26.8282H97.6378C96.9418 26.8282 96.375 26.6473 95.9375 26.2854C95.5 25.9235 95.2813 25.4309 95.2813 24.8077V24.7172H94.8338C94.6747 25.0188 94.4361 25.3706 94.1179 25.7727C93.7997 26.1748 93.3324 26.5266 92.716 26.8282C92.0995 27.1097 91.2841 27.2504 90.27 27.2504ZM90.7174 24.687C91.9503 24.687 92.9446 24.3352 93.7003 23.6315C94.456 22.9078 94.8338 21.9226 94.8338 20.6762V20.3746H90.5384C89.7231 20.3746 89.0668 20.5555 88.5697 20.9174C88.0725 21.2592 87.824 21.7719 87.824 22.4554C87.824 23.139 88.0825 23.6818 88.5995 24.0839C89.1166 24.486 89.8225 24.687 90.7174 24.687Z" fill="#222222"/>
<path d="M108.831 27.2504C106.962 27.2504 105.411 26.8282 104.178 25.9838C102.945 25.1394 102.189 23.8628 101.911 22.1539L104.774 21.4602C104.933 22.2845 105.202 22.9379 105.58 23.4204C105.957 23.903 106.425 24.2447 106.982 24.4458C107.558 24.6468 108.175 24.7474 108.831 24.7474C109.805 24.7474 110.551 24.5564 111.068 24.1744C111.605 23.7924 111.874 23.2998 111.874 22.6967C111.874 22.0935 111.625 21.6512 111.128 21.3698C110.631 21.0883 109.895 20.8571 108.92 20.6762L107.906 20.4952C106.912 20.3143 106.007 20.0529 105.192 19.7111C104.376 19.3694 103.73 18.8969 103.253 18.2938C102.776 17.6906 102.537 16.9166 102.537 15.9717C102.537 14.5643 103.054 13.4787 104.088 12.7147C105.122 11.9306 106.494 11.5386 108.205 11.5386C109.855 11.5386 111.207 11.9206 112.261 12.6845C113.335 13.4284 114.031 14.4437 114.349 15.7304L111.486 16.5446C111.307 15.6399 110.929 15.0066 110.352 14.6447C109.776 14.2628 109.06 14.0718 108.205 14.0718C107.369 14.0718 106.713 14.2326 106.236 14.5543C105.759 14.8558 105.52 15.2881 105.52 15.851C105.52 16.4542 105.749 16.8965 106.206 17.1779C106.683 17.4594 107.32 17.6705 108.115 17.8112L109.159 17.9922C110.213 18.1731 111.178 18.4244 112.053 18.7461C112.928 19.0678 113.614 19.5302 114.111 20.1333C114.628 20.7365 114.886 21.5407 114.886 22.5459C114.886 24.0336 114.339 25.1897 113.246 26.014C112.152 26.8382 110.68 27.2504 108.831 27.2504Z" fill="#222222"/>
</svg>
