<svg width="56" height="56" viewBox="0 0 56 56" fill="none" xmlns="http://www.w3.org/2000/svg">
<rect width="56" height="56" rx="17" fill="#B4DCFA"/>
<path fill-rule="evenodd" clip-rule="evenodd" d="M29.0965 13C30.148 13 31 13.852 31 14.9035V14.905C31 15.7705 31.594 16.5145 32.4025 16.834C32.5299 16.8848 32.6564 16.9378 32.782 16.993C33.58 17.3395 34.525 17.2345 35.14 16.6195C35.4969 16.2628 35.9809 16.0625 36.4855 16.0625C36.9901 16.0625 37.4741 16.2628 37.831 16.6195L39.382 18.1705C39.7387 18.5274 39.939 19.0114 39.939 19.516C39.939 20.0206 39.7387 20.5046 39.382 20.8615C38.7685 21.4765 38.6635 22.423 39.0085 23.2195C39.0632 23.3451 39.1157 23.4716 39.166 23.599C39.4855 24.4075 40.2295 25.0015 41.0965 25.0015C42.148 25.0015 43 25.8535 43 26.905V29.0965C43 30.148 42.148 31 41.0965 31C40.2295 31 39.4855 31.594 39.1675 32.4025C39.1165 32.53 39.064 32.6575 39.0085 32.782C38.662 33.58 38.767 34.525 39.382 35.14C39.7387 35.4969 39.939 35.9809 39.939 36.4855C39.939 36.9901 39.7387 37.4741 39.382 37.831L37.831 39.382C37.6542 39.5588 37.4444 39.6991 37.2134 39.7948C36.9824 39.8905 36.7348 39.9398 36.4847 39.9398C36.2347 39.9398 35.9871 39.8905 35.7561 39.7948C35.5251 39.6991 35.3153 39.5588 35.1385 39.382C34.525 38.7685 33.5785 38.662 32.782 39.01C32.6575 39.064 32.53 39.1165 32.4025 39.166C31.594 39.4855 31 40.2295 31 41.0965C31 42.148 30.148 43 29.0965 43H26.9035C25.852 43 25 42.148 25 41.0965C25 40.2295 24.406 39.4855 23.5975 39.1675C23.47 39.1165 23.3425 39.064 23.218 39.0085C22.42 38.662 21.475 38.767 20.86 39.382C20.5031 39.7387 20.0191 39.939 19.5145 39.939C19.0099 39.939 18.5259 39.7387 18.169 39.382L16.618 37.831C16.2613 37.4741 16.061 36.9901 16.061 36.4855C16.061 35.9809 16.2613 35.4969 16.618 35.14C17.2315 34.525 17.3365 33.5785 16.99 32.782L16.9785 32.7548C16.9297 32.639 16.8798 32.5207 16.8325 32.4025C16.5145 31.594 15.7705 31 14.9035 31C13.852 31 13 30.148 13 29.0965V26.9035C13 25.852 13.852 25 14.9035 25C15.7705 25 16.5145 24.406 16.8325 23.5975C16.8828 23.4701 16.9353 23.3436 16.99 23.218C17.338 22.42 17.233 21.475 16.618 20.86C16.2613 20.5031 16.061 20.0191 16.061 19.5145C16.061 19.0099 16.2613 18.5259 16.618 18.169L18.169 16.618C18.5259 16.2613 19.0099 16.061 19.5145 16.061C20.0191 16.061 20.5031 16.2613 20.86 16.618C21.475 17.2315 22.4215 17.3365 23.218 16.9915C23.3425 16.9375 23.47 16.8835 23.5975 16.8325C24.406 16.5145 25 15.7705 25 14.9035C25 13.852 25.852 13 26.905 13H29.0965ZM28 32C30.2091 32 32 30.2091 32 28C32 25.7909 30.2091 24 28 24C25.7909 24 24 25.7909 24 28C24 30.2091 25.7909 32 28 32Z" fill="white"/>
<circle cx="38" cy="18" r="6" fill="#222222" stroke="#B4DCFA" stroke-width="4"/>
</svg>
