<svg width="56" height="56" viewBox="0 0 56 56" fill="none" xmlns="http://www.w3.org/2000/svg">
<rect width="56" height="56" rx="17" fill="#FFCD9F"/>
<path d="M39.3444 30C37.7399 30 36.7669 30.7884 36.3113 31.288C36.1573 31.4569 35.8427 31.4569 35.6887 31.288C35.2331 30.7884 34.2601 30 32.6556 30C30.6644 30 29 31.6895 29 33.6947C29 37.9252 34.8935 41.3846 35.8651 41.9262C35.9517 41.9745 36.0483 41.9745 36.1349 41.9262C37.1065 41.3846 43 37.9252 43 33.6947C43 31.6895 41.3356 30 39.3444 30Z" fill="#222222"/>
<rect x="14" y="14" width="12" height="12" rx="3" fill="white"/>
<rect x="14" y="30" width="12" height="12" rx="3" fill="white"/>
<rect x="30" y="14" width="12" height="12" rx="3" fill="white"/>
</svg>
