<svg width="392" height="360" viewBox="0 0 392 360" fill="none" xmlns="http://www.w3.org/2000/svg">
<path d="M147.776 182C147.776 251.915 133.972 321.848 105.715 345C97.574 345 82.604 345 74.9606 345C40.7407 345 13 272.022 13 182C13 91.9776 40.7407 19 74.9606 19C89.8854 19.0001 104.81 19.0001 104.81 19.0001C133.628 44.0735 147.776 116.032 147.776 182Z" fill="#B4DCFA"/>
<path fill-rule="evenodd" clip-rule="evenodd" d="M104.81 19.0001L74.9606 19C40.7407 19 13 91.9776 13 182C13 272.022 40.7407 345 74.9606 345H105.715C133.972 321.848 147.776 251.915 147.776 182C147.776 116.032 133.628 44.0735 104.81 19.0001ZM104.622 342C117.555 330.85 127.61 308.751 134.425 280.337C141.34 251.502 144.776 216.784 144.776 182C144.776 149.206 141.257 114.968 134.184 85.873C127.218 57.2151 116.936 34.1088 103.668 22.0001L74.9606 22C67.5555 22 60.154 25.9368 53.0741 33.8147C45.9951 41.6914 39.4826 53.2584 33.9521 67.8076C22.899 96.8849 16 137.257 16 182C16 226.743 22.899 267.115 33.9521 296.192C39.4826 310.742 45.9951 322.309 53.0741 330.185C60.154 338.063 67.5555 342 74.9606 342H104.622Z" fill="#222222"/>
<path d="M166.771 182C166.771 272.022 139.03 345 104.81 345C70.5903 345 42.8496 272.022 42.8496 182C42.8496 91.9776 70.5903 19 104.81 19C139.03 19 166.771 91.9776 166.771 182Z" fill="#B4DCFA"/>
<path fill-rule="evenodd" clip-rule="evenodd" d="M145.819 296.192C156.872 267.115 163.771 226.743 163.771 182C163.771 137.257 156.872 96.8849 145.819 67.8076C140.288 53.2584 133.776 41.6914 126.697 33.8147C119.617 25.9368 112.215 22 104.81 22C97.4051 22 90.0036 25.9368 82.9237 33.8147C75.8447 41.6914 69.3322 53.2584 63.8017 67.8076C52.7486 96.8849 45.8496 137.257 45.8496 182C45.8496 226.743 52.7486 267.115 63.8017 296.192C69.3322 310.742 75.8447 322.309 82.9237 330.185C90.0036 338.063 97.4051 342 104.81 342C112.215 342 119.617 338.063 126.697 330.185C133.776 322.309 140.288 310.742 145.819 296.192ZM104.81 345C139.03 345 166.771 272.022 166.771 182C166.771 91.9776 139.03 19 104.81 19C70.5903 19 42.8496 91.9776 42.8496 182C42.8496 272.022 70.5903 345 104.81 345Z" fill="#222222"/>
<path d="M148.68 182C148.68 256.018 129.242 316.022 105.263 316.022C81.2837 316.022 61.845 256.018 61.845 182C61.845 107.982 81.2837 47.9778 105.263 47.9778C129.242 47.9778 148.68 107.982 148.68 182Z" fill="#222222"/>
<mask id="mask0_271_2944" style="mask-type:alpha" maskUnits="userSpaceOnUse" x="79" y="38" width="313" height="279">
<path d="M392 162.983C392 195.985 387.701 268.755 328.683 295.101C255.33 327.846 136.641 313.212 123.353 313.212C99.3743 313.212 79.9355 253.208 79.9355 179.19C79.9355 105.172 99.3743 45.1678 123.353 45.1678C136.641 45.1678 221.863 27.1061 295.215 52.4122C354.233 72.7733 392 129.981 392 162.983Z" fill="#222222"/>
</mask>
<g mask="url(#mask0_271_2944)">
<path d="M224.095 85.2926C208.306 76.8482 200.263 60.8339 197.157 50.4644C196.479 48.1988 198.736 46.3647 200.916 47.281L341.914 106.538C343.394 107.16 344.563 108.35 345.159 109.84L357.707 141.187C358.413 142.949 358.274 144.97 357.125 146.48C348.576 157.723 336.321 156.415 329.672 153.722C328.606 153.29 327.375 153.366 326.432 154.025C322.809 156.558 316.996 161.04 318.733 171.04C319.992 178.29 318.719 183.656 317.456 187.628C316.794 189.71 318.483 191.696 320.668 191.632C327.053 191.445 333.014 192.838 335.599 193.729C346.218 193.066 354.514 195.387 360.156 199.367C365.798 203.346 386.041 225.895 377.081 234.517C369.913 241.415 362.811 235.623 360.156 231.864C351.86 240.155 343.563 234.517 340.577 225.895C337.59 217.273 333.608 210.641 323.984 211.636C314.36 212.631 297.435 221.916 274.206 225.895C250.976 229.875 233.387 218.932 206.175 211.636C184.406 205.8 161.659 205.447 160 206C157.566 213.295 154.841 222.659 147.5 230C142.5 235 136.647 238.5 126.5 238.5C111.647 238.5 101.752 235.07 95.9994 232.528C92.9021 233.854 85.2473 237.966 79.4067 243.802C72.1059 251.098 64.8051 271.326 55.1813 276.963C47.4822 281.473 42.0177 276.632 40.2478 273.647C38.4779 275.084 33.2788 277.56 26.6417 275.969C18.3453 273.979 20.3365 260.383 26.6417 252.093C32.9469 243.802 56.8405 211.968 66.7962 210.973C76.7518 209.978 80.4022 214.952 89.3623 210.973C98.3224 206.994 90.3578 193.729 89.3623 180.796C88.5658 170.45 94.3401 158.8 97.3268 154.268C79.2739 147.901 83.3889 132.381 87.703 125.417C95.0038 131.386 116.707 144.386 145.114 148.63C180.622 153.936 210.489 140.34 230.069 131.718C249.648 123.096 267.237 118.122 281.174 118.454C295.112 118.785 297.104 111.49 296.772 107.511C296.44 103.531 294.449 97.8938 281.174 98.2254C267.9 98.557 247.657 97.8938 224.095 85.2926Z" fill="white"/>
<path fill-rule="evenodd" clip-rule="evenodd" d="M198.925 48.8314C198.61 49.0946 198.436 49.5066 198.594 50.0341C201.642 60.2093 209.508 75.7899 224.803 83.9699C248.04 96.3976 267.987 97.0544 281.137 96.7259C287.951 96.5557 292.199 97.9039 294.797 100.108C297.429 102.341 298.085 105.212 298.266 107.386C298.456 109.664 297.989 112.96 295.404 115.64C292.811 118.329 288.352 120.125 281.139 119.953C267.533 119.63 250.188 124.497 230.673 133.091C230.259 133.273 229.839 133.458 229.415 133.645C209.842 142.275 180.12 155.378 144.892 150.114C117.802 146.066 96.7257 134.146 88.1483 127.672C86.4459 130.954 85.07 135.485 85.6158 139.882C85.9282 142.398 86.868 144.87 88.7443 147.083C90.6253 149.301 93.5107 151.331 97.8257 152.853L99.635 153.491L98.5793 155.093C97.1502 157.261 95.0137 161.201 93.3372 165.86C91.6567 170.53 90.4823 175.802 90.8578 180.681C91.0973 183.792 91.7587 186.952 92.5012 190.059C92.7035 190.906 92.9133 191.754 93.1218 192.596C93.6675 194.802 94.204 196.97 94.571 198.972C95.0773 201.733 95.3161 204.431 94.7381 206.759C94.1318 209.201 92.6453 211.156 89.9711 212.344C85.1188 214.499 81.6304 214.222 78.1729 213.566C77.6179 213.461 77.0696 213.348 76.5202 213.234C73.7161 212.657 70.8805 212.072 66.9453 212.466C66.0275 212.557 64.7921 213.032 63.249 213.968C61.7298 214.889 60.0264 216.188 58.1934 217.783C54.5286 220.973 50.4623 225.247 46.4772 229.787C38.9886 238.317 31.8955 247.656 28.4485 252.194C28.2291 252.483 28.0246 252.752 27.8356 253.001C24.8481 256.929 22.8955 262.116 22.6639 266.473C22.5484 268.648 22.8673 270.5 23.5839 271.869C24.2747 273.188 25.3596 274.119 26.9915 274.51C33.1187 275.979 37.8478 273.664 39.3023 272.483L40.6515 271.387L41.538 272.882C42.2892 274.149 43.8631 275.849 46.0481 276.723C48.1524 277.565 50.9588 277.698 54.4231 275.669C56.5854 274.402 58.7063 272.257 60.81 269.516C62.904 266.788 64.9093 263.568 66.8735 260.242C67.5673 259.067 68.2597 257.872 68.9484 256.684C70.1887 254.543 71.4167 252.424 72.619 250.48C74.4898 247.454 76.3905 244.696 78.3464 242.741C84.3611 236.731 92.1954 232.525 95.4089 231.149L96.0089 230.892L96.6058 231.156C102.207 233.631 111.896 237 126.5 237C131.394 237 135.181 236.158 138.318 234.756C141.459 233.352 144.025 231.354 146.439 228.939C153.013 222.366 155.743 214.1 158.081 207.024C158.248 206.518 158.413 206.018 158.577 205.525L158.814 204.814L159.526 204.577C159.804 204.484 160.141 204.442 160.403 204.416C160.708 204.385 161.081 204.362 161.51 204.345C162.37 204.312 163.509 204.303 164.879 204.327C167.623 204.374 171.337 204.551 175.676 204.928C184.349 205.681 195.57 207.24 206.564 210.187C213.417 212.025 219.656 214.09 225.502 216.082C226.484 216.416 227.453 216.748 228.412 217.077C233.179 218.71 237.685 220.253 242.107 221.555C252.699 224.673 262.653 226.353 273.952 224.417C285.439 222.449 295.381 219.168 303.698 216.232C304.863 215.821 305.999 215.415 307.106 215.02C309.931 214.012 312.558 213.074 314.949 212.298C318.272 211.219 321.259 210.41 323.83 210.144C329.072 209.602 332.93 211.155 335.838 214.107C338.658 216.971 340.488 221.057 341.994 225.404C343.398 229.457 345.985 232.602 348.952 233.837C351.764 235.008 355.285 234.611 359.096 230.803L360.354 229.546L361.381 230.999C362.594 232.716 364.805 234.851 367.423 235.772C368.707 236.223 370.067 236.376 371.471 236.075C372.873 235.774 374.418 234.998 376.04 233.436C377.76 231.782 378.211 229.379 377.543 226.261C376.872 223.13 375.115 219.556 372.833 216.013C368.259 208.913 361.913 202.442 359.291 200.592C353.992 196.854 346.056 194.579 335.692 195.226L335.393 195.245L335.11 195.147C332.668 194.306 326.888 192.951 320.711 193.131C317.633 193.221 315.01 190.369 316.026 187.173C317.249 183.329 318.458 178.222 317.255 171.297C316.325 165.943 317.41 161.945 319.302 158.934C321.163 155.974 323.74 154.077 325.572 152.796C326.982 151.809 328.759 151.733 330.235 152.331C336.557 154.892 347.959 156.056 355.931 145.572C356.712 144.546 356.856 143.097 356.315 141.744L343.767 110.397C343.319 109.28 342.443 108.388 341.333 107.921L200.335 48.6639L200.916 47.2811L200.335 48.6639C199.772 48.4272 199.256 48.5561 198.925 48.8314ZM195.72 50.8948C194.629 47.2512 198.309 44.5581 201.497 45.8982L342.495 105.156C344.345 105.933 345.806 107.42 346.552 109.283L359.1 140.63C359.969 142.801 359.837 145.393 358.319 147.388C349.192 159.39 336.085 157.937 329.109 155.112C328.453 154.846 327.767 154.922 327.291 155.254C325.501 156.506 323.36 158.116 321.842 160.531C320.357 162.894 319.403 166.137 320.211 170.783C321.526 178.358 320.189 183.984 318.885 188.082C318.577 189.051 319.333 190.17 320.624 190.133C326.995 189.946 332.945 191.277 335.8 192.214C346.537 191.596 355.091 193.959 361.021 198.141C364.041 200.271 370.636 207.063 375.355 214.389C377.719 218.059 379.695 221.987 380.476 225.633C381.26 229.293 380.881 232.942 378.121 235.598C376.159 237.486 374.129 238.572 372.1 239.008C370.074 239.443 368.148 239.206 366.428 238.602C363.744 237.658 361.513 235.806 359.984 234.062C355.866 237.555 351.576 238.18 347.799 236.607C343.796 234.94 340.742 230.955 339.159 226.386C337.678 222.112 336.024 218.571 333.7 216.212C331.464 213.942 328.52 212.675 324.138 213.128C321.897 213.36 319.159 214.085 315.876 215.151C313.529 215.913 310.964 216.828 308.157 217.831C307.042 218.228 305.889 218.64 304.696 219.061C296.337 222.012 286.202 225.362 274.459 227.374C262.528 229.418 252.073 227.616 241.26 224.433C236.769 223.111 232.189 221.542 227.422 219.909C226.467 219.582 225.505 219.252 224.535 218.921C218.703 216.934 212.54 214.895 205.787 213.085C195.011 210.196 183.974 208.66 175.416 207.917C171.14 207.545 167.496 207.372 164.828 207.327C163.492 207.304 162.412 207.313 161.626 207.343C161.44 207.35 161.274 207.359 161.127 207.368C161.053 207.59 160.979 207.814 160.905 208.041C158.596 215.05 155.66 223.962 148.561 231.061C145.975 233.646 143.115 235.898 139.542 237.495C135.966 239.093 131.753 240 126.5 240C111.907 240 101.983 236.74 96.0046 234.166C92.7161 235.672 85.7927 239.542 80.4669 244.863C78.7724 246.557 77.0227 249.062 75.1706 252.058C73.9879 253.97 72.8012 256.018 71.5781 258.129C70.8846 259.326 70.1794 260.543 69.4567 261.767C67.4801 265.115 65.3994 268.465 63.1897 271.343C60.9896 274.209 58.589 276.706 55.9394 278.258C51.7047 280.738 47.9293 280.706 44.9341 279.508C42.7178 278.622 41.0053 277.13 39.8641 275.711C37.1801 277.262 32.2495 278.856 26.2919 277.427C23.7756 276.824 21.9982 275.308 20.926 273.26C19.8796 271.261 19.5348 268.823 19.6682 266.314C19.9345 261.303 22.13 255.547 25.4477 251.185C25.6374 250.935 25.8431 250.664 26.064 250.373C29.5097 245.837 36.6608 236.421 44.2228 227.807C48.2437 223.227 52.4116 218.838 56.2238 215.52C58.1294 213.862 59.9752 212.445 61.693 211.403C63.3867 210.375 65.0758 209.637 66.647 209.48C71.0717 209.038 74.374 209.723 77.1987 210.309C77.725 210.418 78.2348 210.524 78.7321 210.618C81.8288 211.206 84.6456 211.426 88.7534 209.602C90.5593 208.8 91.4372 207.605 91.8265 206.036C92.2441 204.354 92.1095 202.182 91.6202 199.513C91.2709 197.607 90.7686 195.577 90.232 193.409C90.0187 192.547 89.8 191.663 89.5834 190.757C88.8325 187.615 88.125 184.267 87.8667 180.912C87.4458 175.444 88.7602 169.719 90.5144 164.844C91.9304 160.909 93.6614 157.45 95.0953 155.018C91.2769 153.43 88.4552 151.38 86.4563 149.023C84.1617 146.318 83.0149 143.281 82.6387 140.251C81.8941 134.254 84.1603 128.288 86.4279 124.628L87.3285 123.174L88.6524 124.256C95.7645 130.071 117.221 142.946 145.336 147.147C179.695 152.281 208.728 139.484 228.335 130.843C228.715 130.675 229.092 130.509 229.464 130.345C249.108 121.695 266.94 116.615 281.21 116.954C287.935 117.114 291.44 115.429 293.244 113.557C295.057 111.678 295.419 109.336 295.277 107.635C295.126 105.83 294.621 103.893 292.856 102.395C291.056 100.868 287.672 99.5636 281.212 99.725C267.814 100.06 247.274 99.39 223.388 86.6154C207.104 77.9065 198.884 61.4586 195.72 50.8948Z" fill="#222222"/>
<path fill-rule="evenodd" clip-rule="evenodd" d="M337.31 196.452C336.442 195.965 335.575 195.48 334.709 194.974L336.224 192.384C337.044 192.864 337.881 193.332 338.734 193.808C343.704 196.585 349.214 199.664 355.187 207.239C358.085 210.914 360.726 215.535 362.036 220.159C363.339 224.758 363.389 229.627 360.675 233.481L358.222 231.754C360.194 228.952 360.333 225.157 359.149 220.976C357.972 216.82 355.551 212.544 352.832 209.097C347.247 202.014 342.237 199.21 337.31 196.452Z" fill="#222222"/>
</g>
<path d="M116.315 125.321C117.954 123.619 120.612 123.619 122.251 125.321L130.265 133.641C131.904 135.343 131.904 138.102 130.265 139.804L122.251 148.124C120.612 149.825 117.954 149.825 116.315 148.124L108.301 139.804C106.662 138.102 106.662 135.343 108.301 133.641L116.315 125.321Z" fill="#FFCD9F"/>
<path d="M207.82 114.956C210.127 112.585 213.868 112.585 216.175 114.956L227.454 126.544C229.761 128.914 229.761 132.758 227.454 135.128L216.175 146.717C213.868 149.087 210.127 149.087 207.82 146.717L196.542 135.128C194.235 132.758 194.235 128.914 196.542 126.544L207.82 114.956Z" fill="#E3B4FA"/>
<path d="M261.58 211.72C264.92 208.316 270.333 208.316 273.672 211.72L289.997 228.359C293.336 231.763 293.336 237.282 289.997 240.685L273.672 257.325C270.333 260.729 264.92 260.729 261.58 257.325L245.256 240.685C241.917 237.282 241.917 231.763 245.256 228.359L261.58 211.72Z" fill="#FFCD9F"/>
<path d="M208.113 268.216C209.509 266.758 211.773 266.758 213.169 268.216L219.996 275.348C221.392 276.806 221.392 279.172 219.996 280.63L213.169 287.762C211.773 289.22 209.509 289.22 208.113 287.762L201.286 280.63C199.89 279.172 199.89 276.806 201.286 275.348L208.113 268.216Z" fill="#E3B4FA"/>
<rect x="111.594" y="274.367" width="30.7542" height="4.52778" rx="2.26389" fill="#E3B4FA"/>
<path d="M73.6038 177.02C73.6038 175.769 74.6173 174.756 75.8676 174.756H102.094C103.344 174.756 104.358 175.769 104.358 177.02C104.358 178.27 103.344 179.283 102.094 179.283H75.8677C74.6173 179.283 73.6038 178.27 73.6038 177.02Z" fill="#E3B4FA"/>
<path d="M84.4583 95.5195C84.4583 94.2692 85.4718 93.2556 86.7221 93.2556H164.507C165.757 93.2556 166.771 94.2692 166.771 95.5195C166.771 96.7698 165.757 97.7834 164.507 97.7834H86.7221C85.4718 97.7834 84.4583 96.7698 84.4583 95.5195Z" fill="#FFCD9F"/>
</svg>
