<svg width="36" height="36" viewBox="0 0 36 36" fill="none" xmlns="http://www.w3.org/2000/svg">
<path d="M0 17.6C0 11.4394 0 8.35913 1.19893 6.0061C2.25354 3.93632 3.93632 2.25354 6.0061 1.19893C8.35913 0 11.4394 0 17.6 0H18.4C24.5606 0 27.6409 0 29.9939 1.19893C32.0637 2.25354 33.7465 3.93632 34.8011 6.0061C36 8.35913 36 11.4394 36 17.6V18.4C36 24.5606 36 27.6409 34.8011 29.9939C33.7465 32.0637 32.0637 33.7465 29.9939 34.8011C27.6409 36 24.5606 36 18.4 36H17.6C11.4394 36 8.35913 36 6.0061 34.8011C3.93632 33.7465 2.25354 32.0637 1.19893 29.9939C0 27.6409 0 24.5606 0 18.4V17.6Z" fill="#FFCD9F"/>
<path d="M18 8C12.475 8 8 12.475 8 18C7.99887 20.0993 8.65882 22.1456 9.88622 23.8487C11.1136 25.5517 12.8461 26.8251 14.838 27.488C15.338 27.575 15.525 27.275 15.525 27.012C15.525 26.775 15.512 25.988 15.512 25.15C13 25.613 12.35 24.538 12.15 23.975C12.037 23.687 11.55 22.8 11.125 22.562C10.775 22.375 10.275 21.912 11.112 21.9C11.9 21.887 12.462 22.625 12.65 22.925C13.55 24.437 14.988 24.012 15.562 23.75C15.65 23.1 15.912 22.663 16.2 22.413C13.975 22.163 11.65 21.3 11.65 17.475C11.65 16.387 12.037 15.488 12.675 14.787C12.575 14.537 12.225 13.512 12.775 12.137C12.775 12.137 13.612 11.875 15.525 13.163C16.3391 12.9371 17.1802 12.8233 18.025 12.825C18.875 12.825 19.725 12.937 20.525 13.162C22.437 11.862 23.275 12.138 23.275 12.138C23.825 13.513 23.475 14.538 23.375 14.788C24.012 15.488 24.4 16.375 24.4 17.475C24.4 21.313 22.063 22.163 19.838 22.413C20.2 22.725 20.513 23.325 20.513 24.263C20.513 25.6 20.5 26.675 20.5 27.013C20.5 27.275 20.688 27.587 21.188 27.487C23.173 26.8168 24.8979 25.541 26.1199 23.8392C27.3419 22.1373 27.9994 20.0951 28 18C28 12.475 23.525 8 18 8Z" fill="#222222"/>
</svg>
