<svg width="36" height="36" viewBox="0 0 36 36" fill="none" xmlns="http://www.w3.org/2000/svg">
<path d="M0 17.6C0 11.4394 0 8.35913 1.19893 6.0061C2.25354 3.93632 3.93632 2.25354 6.0061 1.19893C8.35913 0 11.4394 0 17.6 0H18.4C24.5606 0 27.6409 0 29.9939 1.19893C32.0637 2.25354 33.7465 3.93632 34.8011 6.0061C36 8.35913 36 11.4394 36 17.6V18.4C36 24.5606 36 27.6409 34.8011 29.9939C33.7465 32.0637 32.0637 33.7465 29.9939 34.8011C27.6409 36 24.5606 36 18.4 36H17.6C11.4394 36 8.35913 36 6.0061 34.8011C3.93632 33.7465 2.25354 32.0637 1.19893 29.9939C0 27.6409 0 24.5606 0 18.4V17.6Z" fill="#FFCD9F"/>
<path fill-rule="evenodd" clip-rule="evenodd" d="M29.1175 11.8927L29.1215 11.8963C29.1529 11.9211 29.1632 11.9648 29.1415 12.0004L22.5912 22.6481L17.8819 14.9931L21.6344 8.89283C21.769 8.67432 22.0174 8.54895 22.267 8.54895C22.3273 8.54895 22.3874 8.55824 22.4462 8.57332C22.4931 8.5853 22.5393 8.60017 22.5833 8.62227L29.1015 11.8824L29.1089 11.8861C29.1123 11.8878 29.1149 11.8903 29.1175 11.8927ZM15.815 20.5475V13.6036L21.985 23.6335L15.815 20.5475ZM22.912 24.0972L27.9908 26.6373C28.6517 26.968 29.1875 26.7365 29.1875 26.1206V13.896L22.912 24.0972ZM8.37786 8.72168L14.7438 11.9058C14.7676 11.9176 14.7826 11.942 14.7826 11.9684V26.1202C14.7826 26.5729 14.5382 26.8427 14.1897 26.8427C14.066 26.8427 13.9291 26.8086 13.7854 26.7367L8.17842 23.9324C7.84931 23.7678 7.58008 23.332 7.58008 22.9639V9.21488C7.58008 8.85283 7.7756 8.637 8.05433 8.637C8.15343 8.637 8.26286 8.66426 8.37786 8.72168Z" fill="#222222"/>
</svg>
