<svg width="36" height="36" viewBox="0 0 36 36" fill="none" xmlns="http://www.w3.org/2000/svg">
<path d="M0 17.6C0 11.4394 0 8.35913 1.19893 6.0061C2.25354 3.93632 3.93632 2.25354 6.0061 1.19893C8.35913 0 11.4394 0 17.6 0H18.4C24.5606 0 27.6409 0 29.9939 1.19893C32.0637 2.25354 33.7465 3.93632 34.8011 6.0061C36 8.35913 36 11.4394 36 17.6V18.4C36 24.5606 36 27.6409 34.8011 29.9939C33.7465 32.0637 32.0637 33.7465 29.9939 34.8011C27.6409 36 24.5606 36 18.4 36H17.6C11.4394 36 8.35913 36 6.0061 34.8011C3.93632 33.7465 2.25354 32.0637 1.19893 29.9939C0 27.6409 0 24.5606 0 18.4V17.6Z" fill="#FFCD9F"/>
<path fill-rule="evenodd" clip-rule="evenodd" d="M10.8206 7.7157H25.1793C26.8949 7.7157 28.2857 9.10648 28.2857 10.8221V25.1787C28.2857 26.8943 26.8949 28.2851 25.1793 28.2851H10.8206C9.10501 28.2851 7.71423 26.8943 7.71423 25.1787V10.8221C7.71423 9.10648 9.10501 7.7157 10.8206 7.7157ZM14.2965 24.9787V15.6306H11.1894V24.9787H14.2965ZM12.7434 14.3536C13.8269 14.3536 14.5013 13.6357 14.5013 12.7387C14.4811 11.8214 13.8269 11.1235 12.7639 11.1235C11.7011 11.1235 11.0061 11.8214 11.0061 12.7387C11.0061 13.6358 11.6804 14.3536 12.7231 14.3536H12.7433H12.7434ZM19.1231 24.9785H16.016L16.0161 24.9784C16.0161 24.9784 16.0568 16.5075 16.0161 15.6303H19.1232V16.9539C19.5361 16.3169 20.2752 15.411 21.9234 15.411C23.9677 15.411 25.5006 16.747 25.5006 19.6184V24.9785H22.3936V19.9775C22.3936 18.7208 21.9439 17.8635 20.8195 17.8635C19.9612 17.8635 19.45 18.4417 19.2253 18.9999C19.1433 19.1996 19.1231 19.4787 19.1231 19.7581V24.9785Z" fill="#222222"/>
</svg>
