<svg width="36" height="36" viewBox="0 0 36 36" fill="none" xmlns="http://www.w3.org/2000/svg">
<path d="M0 17.6C0 11.4394 0 8.35913 1.19893 6.0061C2.25354 3.93632 3.93632 2.25354 6.0061 1.19893C8.35913 0 11.4394 0 17.6 0H18.4C24.5606 0 27.6409 0 29.9939 1.19893C32.0637 2.25354 33.7465 3.93632 34.8011 6.0061C36 8.35913 36 11.4394 36 17.6V18.4C36 24.5606 36 27.6409 34.8011 29.9939C33.7465 32.0637 32.0637 33.7465 29.9939 34.8011C27.6409 36 24.5606 36 18.4 36H17.6C11.4394 36 8.35913 36 6.0061 34.8011C3.93632 33.7465 2.25354 32.0637 1.19893 29.9939C0 27.6409 0 24.5606 0 18.4V17.6Z" fill="#FFCD9F"/>
<path fill-rule="evenodd" clip-rule="evenodd" d="M29.4 11.2737C28.5457 11.6657 27.6404 11.9227 26.7137 12.0364C27.6886 11.4339 28.4197 10.4807 28.7696 9.35544C27.8506 9.9205 26.8461 10.3178 25.7993 10.5302C25.1575 9.82189 24.3277 9.32997 23.4164 9.11753C22.5051 8.9051 21.5538 8.98185 20.6845 9.33792C19.8152 9.69399 19.0677 10.3132 18.5377 11.116C18.0076 11.9188 17.7194 12.8687 17.7098 13.8439C17.7087 14.2156 17.7493 14.5862 17.8308 14.9481C15.9737 14.8542 14.156 14.3549 12.495 13.4824C10.834 12.61 9.3664 11.3838 8.18684 9.88284C7.58883 10.9503 7.40556 12.2166 7.67485 13.421C7.94414 14.6253 8.64547 15.6759 9.63431 16.3564C8.89214 16.332 8.16596 16.1246 7.51522 15.7511V15.8106C7.51724 16.9341 7.89242 18.0219 8.57672 18.8887C9.26101 19.7555 10.2121 20.3475 11.2676 20.5637C10.866 20.6785 10.4513 20.7358 10.0349 20.734C9.74076 20.7342 9.44722 20.7054 9.15822 20.6479C9.4601 21.614 10.0433 22.4575 10.8263 23.0608C11.6093 23.664 12.5531 23.9969 13.526 24.0129C11.5575 25.6023 9.07135 26.3234 6.59998 26.0218C8.74216 27.4461 11.2294 28.2016 13.7689 28.1992C15.5132 28.2193 17.2439 27.8771 18.8604 27.1925C20.477 26.5079 21.947 25.4945 23.1852 24.2113C24.4234 22.928 25.405 21.4005 26.0729 19.7175C26.7408 18.0345 27.0817 16.2297 27.0758 14.4079C27.0758 14.1973 27.0758 13.9876 27.0635 13.7807C27.978 13.0959 28.7681 12.246 29.3964 11.2709" fill="#222222"/>
</svg>
