<svg width="36" height="36" viewBox="0 0 36 36" fill="none" xmlns="http://www.w3.org/2000/svg">
<path d="M0 17.6C0 11.4394 0 8.35913 1.19893 6.0061C2.25354 3.93632 3.93632 2.25354 6.0061 1.19893C8.35913 0 11.4394 0 17.6 0H18.4C24.5606 0 27.6409 0 29.9939 1.19893C32.0637 2.25354 33.7465 3.93632 34.8011 6.0061C36 8.35913 36 11.4394 36 17.6V18.4C36 24.5606 36 27.6409 34.8011 29.9939C33.7465 32.0637 32.0637 33.7465 29.9939 34.8011C27.6409 36 24.5606 36 18.4 36H17.6C11.4394 36 8.35913 36 6.0061 34.8011C3.93632 33.7465 2.25354 32.0637 1.19893 29.9939C0 27.6409 0 24.5606 0 18.4V17.6Z" fill="#FFCD9F"/>
<path d="M17.102 13.815L17.853 10.279C17.9076 10.022 18.0124 9.77835 18.1612 9.56189C18.3101 9.34542 18.5001 9.1604 18.7205 9.01739C18.9408 8.87438 19.1872 8.77619 19.4455 8.72841C19.7038 8.68064 19.969 8.68423 20.226 8.73897L23.422 9.41897C23.7166 9.09179 24.1109 8.87098 24.5439 8.79077C24.9768 8.71056 25.4241 8.77545 25.8163 8.97536C26.2086 9.17528 26.524 9.49905 26.7135 9.89646C26.903 10.2939 26.956 10.7427 26.8645 11.1734C26.7729 11.604 26.5417 11.9924 26.2069 12.2783C25.8721 12.5642 25.4523 12.7316 25.0126 12.7546C24.5729 12.7776 24.1379 12.6548 23.7751 12.4054C23.4123 12.1559 23.142 11.7937 23.006 11.375L19.81 10.695L19.144 13.83C20.928 13.967 22.701 14.56 24.307 15.53C24.7842 15.2646 25.3215 15.1261 25.8676 15.1278C26.4136 15.1294 26.9501 15.2711 27.4258 15.5392C27.9014 15.8074 28.3003 16.1931 28.5844 16.6595C28.8684 17.1259 29.028 17.6573 29.048 18.203V18.224C29.0556 18.7131 28.9508 19.1974 28.7415 19.6396C28.5322 20.0817 28.2241 20.4698 27.841 20.774C27.8392 20.815 27.8365 20.856 27.833 20.897C27.833 24.895 23.383 27.927 18.034 27.927C12.702 27.927 8.32598 24.903 8.32898 20.974C8.32461 20.9137 8.32128 20.8534 8.31898 20.793C7.67309 20.3082 7.23498 19.5966 7.09293 18.8016C6.95088 18.0066 7.11545 17.1873 7.55348 16.5088C7.99151 15.8303 8.67043 15.3431 9.45343 15.1453C10.2364 14.9475 11.0653 15.0539 11.773 15.443C13.3881 14.4696 15.2187 13.9104 17.102 13.815ZM26.388 19.341C26.796 19.138 27.052 18.721 27.049 18.266C27.0386 18.0372 26.9625 17.8162 26.8298 17.6295C26.6971 17.4428 26.5134 17.2983 26.3007 17.2133C26.088 17.1283 25.8554 17.1063 25.6305 17.1501C25.4057 17.1938 25.1983 17.3014 25.033 17.46L24.448 18.02L23.778 17.565C22.163 16.467 20.326 15.84 18.548 15.801H17.542C15.667 15.83 13.891 16.401 12.305 17.476L11.642 17.926L11.058 17.376C10.932 17.2578 10.7819 17.1683 10.618 17.1139C10.4541 17.0594 10.2803 17.0412 10.1086 17.0606C9.93699 17.0799 9.77161 17.1364 9.62393 17.226C9.47625 17.3155 9.34981 17.4362 9.25335 17.5794C9.1569 17.7227 9.09274 17.8853 9.06531 18.0558C9.03788 18.2263 9.04785 18.4008 9.09451 18.5671C9.14117 18.7334 9.22342 18.8876 9.33556 19.019C9.4477 19.1503 9.58706 19.2558 9.74397 19.328L10.377 19.618L10.323 20.313C10.31 20.483 10.31 20.652 10.326 20.897C10.326 23.607 13.682 25.927 18.034 25.927C22.405 25.927 25.833 23.591 25.836 20.821C25.849 20.6519 25.849 20.4821 25.836 20.313L25.784 19.641L26.388 19.341ZM13 19.5C13 19.1021 13.158 18.7206 13.4393 18.4393C13.7206 18.158 14.1022 18 14.5 18C14.8978 18 15.2793 18.158 15.5606 18.4393C15.8419 18.7206 16 19.1021 16 19.5C16 19.8978 15.8419 20.2793 15.5606 20.5606C15.2793 20.8419 14.8978 21 14.5 21C14.1022 21 13.7206 20.8419 13.4393 20.5606C13.158 20.2793 13 19.8978 13 19.5ZM20 19.5C20 19.1021 20.158 18.7206 20.4393 18.4393C20.7206 18.158 21.1022 18 21.5 18C21.8978 18 22.2793 18.158 22.5606 18.4393C22.8419 18.7206 23 19.1021 23 19.5C23 19.8978 22.8419 20.2793 22.5606 20.5606C22.2793 20.8419 21.8978 21 21.5 21C21.1022 21 20.7206 20.8419 20.4393 20.5606C20.158 20.2793 20 19.8978 20 19.5ZM18.016 24.603C16.619 24.603 15.249 24.233 14.134 23.393C14.0666 23.3117 14.032 23.2081 14.037 23.1027C14.0419 22.9972 14.086 22.8974 14.1607 22.8227C14.2354 22.748 14.3352 22.7039 14.4407 22.699C14.5461 22.694 14.6497 22.7286 14.731 22.796C15.676 23.489 16.854 23.786 18 23.786C19.146 23.786 20.33 23.511 21.284 22.827C21.3391 22.7732 21.4075 22.7348 21.4822 22.7158C21.5569 22.6968 21.6353 22.6977 21.7095 22.7186C21.7836 22.7395 21.851 22.7795 21.9048 22.8347C21.9586 22.8899 21.997 22.9583 22.016 23.033C22.0322 23.1078 22.0298 23.1855 22.0091 23.2593C21.9883 23.333 21.9498 23.4005 21.897 23.456C21.213 24.253 19.413 24.603 18.016 24.603Z" fill="#222222"/>
</svg>
