<svg width="24" height="24" viewBox="0 0 24 24" fill="none" xmlns="http://www.w3.org/2000/svg">
<path d="M16.0782 15.6188C15.1931 16.3269 13.9538 16.858 12.7146 16.858C9.8821 16.858 7.93475 14.7336 7.93475 11.9011C7.93475 9.06859 9.8821 7.12124 12.7146 7.12124C13.9538 7.12124 15.1931 7.4753 16.0782 8.36046L16.6093 8.89156L19.4418 6.23608L18.7337 5.70498C17.1404 4.28872 15.016 3.40356 12.7146 3.40356C7.75772 3.40356 4.04004 7.12124 4.04004 12.0781C4.04004 17.035 7.75772 20.7527 12.7146 20.7527C15.016 20.7527 17.1404 19.8676 18.7337 18.4513L19.4418 17.9202L16.6093 15.0877L16.0782 15.6188Z" fill="#17313B"/>
<path d="M12.5376 14.9106C14.102 14.9106 15.3701 13.6425 15.3701 12.0781C15.3701 10.5138 14.102 9.24561 12.5376 9.24561C10.9732 9.24561 9.70508 10.5138 9.70508 12.0781C9.70508 13.6425 10.9732 14.9106 12.5376 14.9106Z" fill="#EF4335"/>
</svg>
