<svg width="139" height="30" viewBox="0 0 139 30" fill="none" xmlns="http://www.w3.org/2000/svg">
<path d="M58.8006 4.59936C57.5417 2.60163 58.9774 0 61.3387 0H126.485C129 0 131.322 1.34907 132.567 3.53403L137.307 11.8513C138.357 13.6928 138.357 15.9514 137.307 17.7929L132.567 26.1102C131.322 28.2951 129 29.6442 126.485 29.6442H61.3387C58.9774 29.6442 57.5417 27.0426 58.8006 25.0448L64.2345 16.4215C64.8503 15.4441 64.8503 14.2001 64.2345 13.2227L58.8006 4.59936Z" fill="#222222"/>
<path d="M0 2.61562H7.4416C9.06522 2.61562 10.4408 2.89507 11.5683 3.45397C12.6958 4.01287 13.5527 4.84005 14.139 5.9355C14.7366 7.01977 15.0354 8.36672 15.0354 9.97637C15.0354 11.1948 14.8494 12.2679 14.4773 13.1956C14.1165 14.1234 13.5922 14.9059 12.9044 15.543C12.2166 16.169 11.3879 16.6553 10.4182 17.0018L9.21743 17.6557H2.9259L2.90899 14.2352H7.34012C8.14065 14.2352 8.80589 14.0619 9.33582 13.7154C9.86575 13.3689 10.2604 12.8882 10.5197 12.2735C10.7903 11.6587 10.9256 10.96 10.9256 10.1776C10.9256 9.33922 10.8072 8.61264 10.5704 7.99785C10.3337 7.37188 9.96159 6.89122 9.45421 6.55588C8.94683 6.20936 8.27596 6.0361 7.4416 6.0361H4.10979V27.0285H0V2.61562ZM11.4668 27.0285L6.782 16.0628L11.0609 16.0461L15.8641 26.8105V27.0285H11.4668Z" fill="#222222"/>
<path d="M26.925 17.9743H21.7328V14.5705H26.925C27.7707 14.5705 28.4528 14.3917 28.9715 14.034C29.5014 13.6763 29.8848 13.1845 30.1215 12.5585C30.3696 11.9325 30.4936 11.2227 30.4936 10.4291C30.4936 9.66897 30.3696 8.95357 30.1215 8.28289C29.8848 7.61221 29.5071 7.07007 28.9884 6.65648C28.4697 6.24289 27.782 6.0361 26.925 6.0361H22.8829V27.0285H18.79V2.61562H26.925C28.5487 2.61562 29.9355 2.95096 31.0856 3.62164C32.2356 4.29232 33.1151 5.21451 33.724 6.38821C34.3328 7.55073 34.6372 8.8865 34.6372 10.3955C34.6372 11.9716 34.3328 13.3242 33.724 14.4532C33.1151 15.5822 32.2356 16.454 31.0856 17.0688C29.9355 17.6725 28.5487 17.9743 26.925 17.9743Z" fill="#222222"/>
<path d="M50.2815 19.0641H54.3744C54.2955 20.8303 53.9347 22.3337 53.292 23.5745C52.6493 24.8041 51.7247 25.743 50.5183 26.3913C49.3231 27.0397 47.863 27.3638 46.1379 27.3638C44.83 27.3638 43.6574 27.1291 42.62 26.6596C41.594 26.1901 40.7202 25.5139 39.9986 24.6308C39.277 23.7366 38.7245 22.6467 38.3411 21.3612C37.9691 20.0757 37.783 18.617 37.783 16.985V12.6591C37.783 11.0271 37.9747 9.56837 38.358 8.28289C38.7527 6.99741 39.3164 5.90755 40.0493 5.01331C40.7822 4.11906 41.6729 3.44279 42.7215 2.98449C43.7814 2.51501 44.9766 2.28027 46.307 2.28027C48.0096 2.28027 49.4415 2.60444 50.6029 3.25276C51.7642 3.90109 52.6606 4.85123 53.292 6.10317C53.9234 7.35511 54.2898 8.88092 54.3913 10.6806H50.2984C50.242 9.46217 50.0729 8.48968 49.791 7.76311C49.5204 7.02536 49.1033 6.4944 48.5395 6.17024C47.987 5.84607 47.2429 5.68399 46.307 5.68399C45.529 5.68399 44.8582 5.82931 44.2944 6.11994C43.7419 6.41057 43.2853 6.84651 42.9245 7.42777C42.5749 7.99785 42.31 8.71883 42.1296 9.59072C41.9605 10.4514 41.8759 11.463 41.8759 12.6256V16.985C41.8759 18.1028 41.9492 19.0921 42.0958 19.9528C42.2423 20.8135 42.4791 21.5457 42.8061 22.1493C43.1331 22.7417 43.5672 23.1944 44.1084 23.5074C44.6496 23.8092 45.3261 23.9601 46.1379 23.9601C47.1076 23.9601 47.8799 23.8092 48.4549 23.5074C49.0412 23.2056 49.4753 22.697 49.7572 21.9816C50.0391 21.2662 50.2139 20.2937 50.2815 19.0641Z" fill="#222222"/>
<path d="M73.2773 22.3665V7.00629H82.873V9.63947H76.156V13.3479H82.3496V15.9811H76.156V22.3665H73.2773Z" fill="#E3B4FA"/>
<path d="M122.115 22.3663V9.56362H117.64V6.91479H129.486V9.56362H125.011V22.3663H122.115Z" fill="#E3B4FA"/>
<path d="M91.1361 22.3665C90.0897 22.3665 89.1518 22.1877 88.3226 21.8302C87.5131 21.4726 86.8615 20.9461 86.3679 20.2508C85.894 19.5555 85.6571 18.7112 85.6571 17.7178C85.6571 16.7047 85.894 15.8703 86.3679 15.2147C86.8615 14.5392 87.5229 14.0326 88.3522 13.6949C89.2012 13.3572 90.1588 13.1883 91.225 13.1883H95.6674V12.2348C95.6674 11.3805 95.4107 10.6951 94.8974 10.1786C94.384 9.66207 93.5942 9.40381 92.5281 9.40381C91.4816 9.40381 90.682 9.65214 90.1292 10.1488C89.5763 10.6455 89.2111 11.2911 89.0334 12.0858L86.1902 11.162C86.4271 10.3673 86.8023 9.65214 87.3156 9.01642C87.8487 8.36083 88.5496 7.83438 89.4184 7.43705C90.2871 7.03973 91.3335 6.84106 92.5577 6.84106C94.4531 6.84106 95.9438 7.32779 97.0297 8.30123C98.1157 9.27468 98.6586 10.6554 98.6586 12.4433V18.4926C98.6586 19.0886 98.935 19.3866 99.4879 19.3866H100.732V21.9494H98.4513C97.7603 21.9494 97.1975 21.7706 96.7632 21.413C96.3288 21.0554 96.1116 20.5686 96.1116 19.9528V19.8634H95.6674C95.5094 20.1614 95.2725 20.509 94.9566 20.9064C94.6407 21.3037 94.1767 21.6514 93.5646 21.9494C92.9526 22.2275 92.1431 22.3665 91.1361 22.3665ZM91.5803 19.8336C92.8045 19.8336 93.7917 19.4859 94.542 18.7906C95.2922 18.0754 95.6674 17.102 95.6674 15.8703V15.5723H91.4026C90.5931 15.5723 89.9416 15.7511 89.448 16.1087C88.9544 16.4464 88.7076 16.953 88.7076 17.6284C88.7076 18.3039 88.9642 18.8403 89.4776 19.2376C89.9909 19.6349 90.6919 19.8336 91.5803 19.8336Z" fill="#E3B4FA"/>
<path d="M109.565 22.3665C107.709 22.3665 106.169 21.9494 104.944 21.115C103.72 20.2806 102.97 19.0191 102.694 17.3304L105.537 16.6451C105.695 17.4596 105.961 18.1052 106.336 18.582C106.712 19.0588 107.176 19.3965 107.728 19.5952C108.301 19.7939 108.913 19.8932 109.565 19.8932C110.532 19.8932 111.272 19.7045 111.786 19.327C112.319 18.9495 112.585 18.4628 112.585 17.8668C112.585 17.2708 112.339 16.8338 111.845 16.5557C111.351 16.2775 110.621 16.0491 109.653 15.8703L108.646 15.6915C107.659 15.5127 106.761 15.2544 105.951 14.9167C105.142 14.579 104.5 14.1121 104.026 13.5161C103.552 12.9201 103.316 12.1553 103.316 11.2216C103.316 9.83094 103.829 8.75816 104.856 8.00324C105.882 7.22846 107.245 6.84106 108.943 6.84106C110.581 6.84106 111.924 7.21852 112.97 7.97344C114.037 8.70849 114.728 9.71174 115.044 10.9832L112.2 11.7878C112.023 10.8938 111.648 10.268 111.075 9.9104C110.502 9.53294 109.792 9.34421 108.943 9.34421C108.113 9.34421 107.462 9.50314 106.988 9.821C106.514 10.119 106.277 10.5461 106.277 11.1024C106.277 11.6984 106.504 12.1354 106.958 12.4135C107.432 12.6917 108.064 12.9003 108.854 13.0393L109.89 13.2181C110.937 13.3969 111.894 13.6453 112.763 13.9631C113.632 14.281 114.313 14.7379 114.807 15.3339C115.32 15.9299 115.577 16.7245 115.577 17.7178C115.577 19.1879 115.034 20.3303 113.948 21.1448C112.862 21.9593 111.401 22.3665 109.565 22.3665Z" fill="#E3B4FA"/>
<path d="M70.2554 22.3665V7.00629H79.851V9.63947H73.1341V13.3479H79.3276V15.9811H73.1341V22.3665H70.2554Z" fill="#FFCBAE"/>
<path d="M119.093 22.3663V9.56362H114.618V6.91479H126.464V9.56362H121.989V22.3663H119.093Z" fill="#FFCBAE"/>
<path d="M88.1141 22.3665C87.0677 22.3665 86.1298 22.1877 85.3006 21.8302C84.4911 21.4726 83.8395 20.9461 83.3459 20.2508C82.8721 19.5555 82.6351 18.7112 82.6351 17.7178C82.6351 16.7047 82.8721 15.8703 83.3459 15.2147C83.8395 14.5392 84.501 14.0326 85.3302 13.6949C86.1792 13.3572 87.1368 13.1883 88.203 13.1883H92.6454V12.2348C92.6454 11.3805 92.3887 10.6951 91.8754 10.1786C91.362 9.66207 90.5723 9.40381 89.5061 9.40381C88.4597 9.40381 87.66 9.65214 87.1072 10.1488C86.5543 10.6455 86.1891 11.2911 86.0114 12.0858L83.1682 11.162C83.4052 10.3673 83.7803 9.65214 84.2936 9.01642C84.8267 8.36083 85.5276 7.83438 86.3964 7.43705C87.2651 7.03973 88.3116 6.84106 89.5357 6.84106C91.4311 6.84106 92.9218 7.32779 94.0078 8.30123C95.0937 9.27468 95.6366 10.6554 95.6366 12.4433V18.4926C95.6366 19.0886 95.9131 19.3866 96.4659 19.3866H97.7098V21.9494H95.4293C94.7383 21.9494 94.1756 21.7706 93.7412 21.413C93.3068 21.0554 93.0897 20.5686 93.0897 19.9528V19.8634H92.6454C92.4875 20.1614 92.2505 20.509 91.9346 20.9064C91.6187 21.3037 91.1547 21.6514 90.5427 21.9494C89.9306 22.2275 89.1211 22.3665 88.1141 22.3665ZM88.5584 19.8336C89.7825 19.8336 90.7697 19.4859 91.52 18.7906C92.2703 18.0754 92.6454 17.102 92.6454 15.8703V15.5723H88.3807C87.5712 15.5723 86.9196 15.7511 86.426 16.1087C85.9324 16.4464 85.6856 16.953 85.6856 17.6284C85.6856 18.3039 85.9423 18.8403 86.4556 19.2376C86.969 19.6349 87.6699 19.8336 88.5584 19.8336Z" fill="#FFCBAE"/>
<path d="M106.543 22.3665C104.687 22.3665 103.147 21.9494 101.922 21.115C100.698 20.2806 99.948 19.0191 99.6716 17.3304L102.515 16.6451C102.673 17.4596 102.939 18.1052 103.314 18.582C103.69 19.0588 104.154 19.3965 104.706 19.5952C105.279 19.7939 105.891 19.8932 106.543 19.8932C107.51 19.8932 108.25 19.7045 108.764 19.327C109.297 18.9495 109.563 18.4628 109.563 17.8668C109.563 17.2708 109.317 16.8338 108.823 16.5557C108.329 16.2775 107.599 16.0491 106.631 15.8703L105.624 15.6915C104.637 15.5127 103.739 15.2544 102.929 14.9167C102.12 14.579 101.478 14.1121 101.004 13.5161C100.53 12.9201 100.294 12.1553 100.294 11.2216C100.294 9.83094 100.807 8.75816 101.834 8.00324C102.86 7.22846 104.223 6.84106 105.921 6.84106C107.559 6.84106 108.902 7.21852 109.948 7.97344C111.015 8.70849 111.706 9.71174 112.022 10.9832L109.178 11.7878C109.001 10.8938 108.626 10.268 108.053 9.9104C107.48 9.53294 106.77 9.34421 105.921 9.34421C105.091 9.34421 104.44 9.50314 103.966 9.821C103.492 10.119 103.255 10.5461 103.255 11.1024C103.255 11.6984 103.482 12.1354 103.936 12.4135C104.41 12.6917 105.042 12.9003 105.832 13.0393L106.868 13.2181C107.915 13.3969 108.872 13.6453 109.741 13.9631C110.61 14.281 111.291 14.7379 111.785 15.3339C112.298 15.9299 112.555 16.7245 112.555 17.7178C112.555 19.1879 112.012 20.3303 110.926 21.1448C109.84 21.9593 108.379 22.3665 106.543 22.3665Z" fill="#FFCBAE"/>
<path d="M71.7661 22.3665V7.00629H81.3618V9.63947H74.6448V13.3479H80.8384V15.9811H74.6448V22.3665H71.7661Z" fill="white"/>
<path d="M120.604 22.3663V9.56362H116.129V6.91479H127.975V9.56362H123.5V22.3663H120.604Z" fill="white"/>
<path d="M89.6249 22.3665C88.5784 22.3665 87.6406 22.1877 86.8113 21.8302C86.0018 21.4726 85.3503 20.9461 84.8567 20.2508C84.3828 19.5555 84.1459 18.7112 84.1459 17.7178C84.1459 16.7047 84.3828 15.8703 84.8567 15.2147C85.3503 14.5392 86.0117 14.0326 86.841 13.6949C87.6899 13.3572 88.6475 13.1883 89.7137 13.1883H94.1562V12.2348C94.1562 11.3805 93.8995 10.6951 93.3861 10.1786C92.8728 9.66207 92.083 9.40381 91.0168 9.40381C89.9704 9.40381 89.1708 9.65214 88.6179 10.1488C88.0651 10.6455 87.6998 11.2911 87.5221 12.0858L84.679 11.162C84.9159 10.3673 85.291 9.65214 85.8044 9.01642C86.3375 8.36083 87.0384 7.83438 87.9071 7.43705C88.7759 7.03973 89.8223 6.84106 91.0464 6.84106C92.9419 6.84106 94.4326 7.32779 95.5185 8.30123C96.6044 9.27468 97.1474 10.6554 97.1474 12.4433V18.4926C97.1474 19.0886 97.4238 19.3866 97.9766 19.3866H99.2205V21.9494H96.9401C96.249 21.9494 95.6863 21.7706 95.2519 21.413C94.8176 21.0554 94.6004 20.5686 94.6004 19.9528V19.8634H94.1562C93.9982 20.1614 93.7613 20.509 93.4454 20.9064C93.1295 21.3037 92.6655 21.6514 92.0534 21.9494C91.4413 22.2275 90.6318 22.3665 89.6249 22.3665ZM90.0691 19.8336C91.2933 19.8336 92.2805 19.4859 93.0307 18.7906C93.781 18.0754 94.1562 17.102 94.1562 15.8703V15.5723H89.8914C89.0819 15.5723 88.4304 15.7511 87.9368 16.1087C87.4431 16.4464 87.1963 16.953 87.1963 17.6284C87.1963 18.3039 87.453 18.8403 87.9664 19.2376C88.4797 19.6349 89.1806 19.8336 90.0691 19.8336Z" fill="white"/>
<path d="M108.053 22.3665C106.197 22.3665 104.657 21.9494 103.433 21.115C102.209 20.2806 101.459 19.0191 101.182 17.3304L104.026 16.6451C104.183 17.4596 104.45 18.1052 104.825 18.582C105.2 19.0588 105.664 19.3965 106.217 19.5952C106.79 19.7939 107.402 19.8932 108.053 19.8932C109.021 19.8932 109.761 19.7045 110.275 19.327C110.808 18.9495 111.074 18.4628 111.074 17.8668C111.074 17.2708 110.827 16.8338 110.334 16.5557C109.84 16.2775 109.11 16.0491 108.142 15.8703L107.135 15.6915C106.148 15.5127 105.25 15.2544 104.44 14.9167C103.631 14.579 102.989 14.1121 102.515 13.5161C102.041 12.9201 101.804 12.1553 101.804 11.2216C101.804 9.83094 102.318 8.75816 103.344 8.00324C104.371 7.22846 105.733 6.84106 107.431 6.84106C109.07 6.84106 110.413 7.21852 111.459 7.97344C112.525 8.70849 113.216 9.71174 113.532 10.9832L110.689 11.7878C110.511 10.8938 110.136 10.268 109.564 9.9104C108.991 9.53294 108.28 9.34421 107.431 9.34421C106.602 9.34421 105.951 9.50314 105.477 9.821C105.003 10.119 104.766 10.5461 104.766 11.1024C104.766 11.6984 104.993 12.1354 105.447 12.4135C105.921 12.6917 106.553 12.9003 107.343 13.0393L108.379 13.2181C109.426 13.3969 110.383 13.6453 111.252 13.9631C112.121 14.281 112.802 14.7379 113.295 15.3339C113.809 15.9299 114.065 16.7245 114.065 17.7178C114.065 19.1879 113.522 20.3303 112.437 21.1448C111.351 21.9593 109.89 22.3665 108.053 22.3665Z" fill="white"/>
</svg>
