<svg width="85" height="21" viewBox="0 0 85 21" fill="none" xmlns="http://www.w3.org/2000/svg">
<path d="M3.36016 12.4933C2.79424 12.4933 2.35801 12.3902 2.05147 12.1841C1.75279 11.9779 1.52878 11.7479 1.37944 11.4941H1.19079V12.3268H0V4H1.21437V7.25935H1.40302C1.49734 7.10074 1.6231 6.95007 1.7803 6.80732C1.9375 6.65665 2.14579 6.53373 2.40517 6.43856C2.66455 6.3434 2.98288 6.29582 3.36016 6.29582C3.84749 6.29582 4.29551 6.41477 4.70423 6.65268C5.11295 6.89059 5.43914 7.23556 5.6828 7.68758C5.92646 8.13961 6.04829 8.67887 6.04829 9.30536V9.48379C6.04829 10.1182 5.92253 10.6614 5.67101 11.1135C5.42735 11.5576 5.10116 11.8986 4.69244 12.1365C4.29158 12.3744 3.84749 12.4933 3.36016 12.4933ZM3.00646 11.4227C3.53308 11.4227 3.96539 11.2522 4.30337 10.9112C4.64921 10.5702 4.82213 10.0825 4.82213 9.44811V9.34105C4.82213 8.71455 4.65314 8.23081 4.31516 7.8898C3.97718 7.5488 3.54094 7.3783 3.00646 7.3783C2.4877 7.3783 2.0554 7.5488 1.70956 7.8898C1.37158 8.23081 1.20258 8.71455 1.20258 9.34105V9.44811C1.20258 10.0825 1.37158 10.5702 1.70956 10.9112C2.0554 11.2522 2.4877 11.4227 3.00646 11.4227Z" fill="#222222"/>
<path d="M8.22503 14.7059V13.6353H11.4673C11.6874 13.6353 11.7974 13.5163 11.7974 13.2784V11.4703H11.6088C11.538 11.6289 11.428 11.7836 11.2787 11.9342C11.1372 12.077 10.9446 12.1959 10.7009 12.2911C10.4573 12.3863 10.1507 12.4339 9.78132 12.4339C9.34116 12.4339 8.94815 12.3347 8.60231 12.1365C8.25647 11.9382 7.9853 11.6567 7.7888 11.2919C7.5923 10.9271 7.49405 10.4949 7.49405 9.99529V6.46235H8.70842V9.90013C8.70842 10.4077 8.83418 10.7844 9.0857 11.0302C9.33723 11.2681 9.687 11.3871 10.135 11.3871C10.6302 11.3871 11.0271 11.2205 11.3258 10.8875C11.6324 10.5544 11.7856 10.0706 11.7856 9.43621V6.46235H13V13.5282C13 13.8851 12.8939 14.1706 12.6817 14.3847C12.4773 14.5988 12.1943 14.7059 11.8328 14.7059H8.22503Z" fill="#222222"/>
<path d="M22 0.154053H27.3549C28.3363 0.154053 29.3249 0.28599 30.3203 0.549864C31.2905 0.801435 32.2037 1.246 33.0084 1.85856C33.8051 2.46672 34.4519 3.26589 34.9499 4.25479C35.4479 5.24494 35.6965 6.47259 35.6965 7.93835C35.6965 9.3017 35.4479 10.4747 34.9499 11.4567C34.4519 12.4387 33.8051 13.2454 33.0084 13.8755C32.2047 14.5098 31.293 14.9835 30.3203 15.2722C29.3578 15.5676 28.3592 15.7193 27.3549 15.7226H22V0.154053ZM26.9282 13.3038C27.6249 13.3038 28.3222 13.2196 29.0189 13.0512C29.6957 12.8917 30.3366 12.6004 30.9073 12.193C31.4687 11.7903 31.9277 11.2443 32.2831 10.5551C32.6384 9.86589 32.8164 8.99385 32.8164 7.93835C32.8164 6.82442 32.6384 5.91531 32.2831 5.21165C31.9277 4.50798 31.4687 3.95824 30.9067 3.56243C30.3369 3.16316 29.6949 2.88644 29.0189 2.74882C28.331 2.60316 27.6305 2.52949 26.9282 2.52892H24.6881V13.3038H26.9282ZM36.3024 5.16767H39.1399L41.9987 12.842H42.0413L44.5801 5.16767H47.2469L42.404 17.9876C42.2193 18.4713 42.02 18.8998 41.8067 19.2736C41.6057 19.6323 41.3458 19.9522 41.0386 20.2192C40.727 20.483 40.3681 20.6811 39.9823 20.8022C39.5769 20.9342 39.0899 21.0001 38.5212 21.0001C38.3079 21.0001 38.0909 20.9895 37.8708 20.9675C37.6501 20.9448 37.4258 20.9046 37.1985 20.8462L37.4118 18.5593C37.5825 18.6177 37.7495 18.6579 37.9135 18.6806C38.0768 18.7025 38.2298 18.7132 38.3719 18.7132C38.6419 18.7132 38.8699 18.6806 39.0545 18.6146C39.2392 18.548 39.3959 18.4456 39.5239 18.3067C39.6617 18.1526 39.7768 17.9784 39.8652 17.7897C39.9646 17.5842 40.0713 17.3423 40.1853 17.064L40.6973 15.7226L36.3024 5.16767V5.16767ZM54.061 7.98233C53.8337 7.67447 53.5203 7.40683 53.1223 7.18002C52.7242 6.95273 52.276 6.83522 51.8209 6.83887C51.4291 6.83403 51.0418 6.92443 50.6902 7.10275C50.3489 7.27866 50.1782 7.57207 50.1782 7.98233C50.1782 8.39259 50.3672 8.68222 50.7439 8.85123C51.1206 9.01961 51.6716 9.19175 52.3969 9.36767C52.781 9.45563 53.1686 9.57311 53.5594 9.7195C53.9401 9.86048 54.2993 10.0568 54.6261 10.3025C54.9467 10.5444 55.2057 10.8447 55.4051 11.2035C55.6044 11.5629 55.7037 11.9989 55.7037 12.5122C55.7037 13.1574 55.5867 13.7034 55.3514 14.1507C55.1273 14.5855 54.8054 14.9586 54.4127 15.2389C54.022 15.5172 53.5667 15.7189 53.0473 15.8439C52.5286 15.9683 51.9916 16.0305 51.4369 16.0305C50.6413 16.0306 49.8526 15.8776 49.1115 15.5794C48.3575 15.2791 47.7321 14.8506 47.2341 14.2933L48.9195 12.6661C49.2041 13.0475 49.5735 13.3622 50.0289 13.6116C50.4842 13.8611 50.9889 13.9855 51.5436 13.9855C51.7283 13.9855 51.9166 13.9635 52.1086 13.9195C52.3012 13.8755 52.4786 13.8064 52.642 13.7109C52.806 13.6154 52.9376 13.4873 53.037 13.3258C53.1363 13.1643 53.1863 12.9664 53.1863 12.7321C53.1863 12.2923 52.9913 11.9769 52.5999 11.7865C52.2086 11.5962 51.6216 11.4052 50.8396 11.2148C50.4555 11.1268 50.0825 11.0137 49.7192 10.8736C49.3706 10.7424 49.0434 10.5573 48.7488 10.3245C48.464 10.0969 48.231 9.80785 48.0661 9.47762C47.8954 9.14023 47.8101 8.72243 47.8101 8.22421C47.8101 7.63803 47.9271 7.13228 48.1618 6.70693C48.3893 6.2898 48.707 5.93229 49.0901 5.66212C49.487 5.38504 49.9273 5.18058 50.3915 5.05772C50.8789 4.92528 51.3809 4.85875 51.8849 4.85981C52.6243 4.85981 53.346 4.99175 54.0507 5.25563C54.7547 5.5195 55.3124 5.92285 55.7251 6.46505L54.061 7.98233V7.98233ZM57.5897 5.16767H60.0218V6.86086H60.0645C60.2918 6.33311 60.6862 5.86819 61.2488 5.46421C61.8102 5.06149 62.4752 4.85981 63.2432 4.85981C63.9119 4.85981 64.4843 4.98044 64.961 5.22233C65.4164 5.44709 65.8173 5.77402 66.1343 6.17919C66.4397 6.575 66.664 7.02924 66.8061 7.54254C66.9481 8.05584 67.0194 8.58358 67.0194 9.12578V15.7226H64.4593V9.87343C64.4593 9.56557 64.438 9.24327 64.3953 8.90589C64.3582 8.58659 64.2641 8.27711 64.1179 7.99301C63.9777 7.72416 63.7765 7.49419 63.5316 7.32264C63.2823 7.14673 62.9519 7.05877 62.5392 7.05877C62.1266 7.05877 61.7712 7.14296 61.4725 7.31133C61.1738 7.48034 60.9288 7.69646 60.7368 7.96034C60.5442 8.22421 60.3985 8.5283 60.2991 8.87322C60.2004 9.21196 60.1501 9.56372 60.1498 9.91741V15.7226H57.5897V5.16767V5.16767ZM69.716 5.16767H72.2761V15.7226H69.716V5.16767Z" fill="#222222"/>
<path d="M69.3535 1.58325C69.3535 1.15791 69.5059 0.787854 69.8125 0.472461C70.1179 0.157696 70.5056 0 70.9749 0C71.4443 0 71.8386 0.150785 72.1593 0.4511C72.4793 0.751414 72.639 1.12901 72.639 1.58325C72.639 2.03749 72.4793 2.41508 72.1593 2.71539C71.8386 3.01634 71.4443 3.16649 70.9749 3.16649C70.5056 3.16649 70.1179 3.00942 69.8125 2.6934C69.5065 2.37864 69.3535 2.00859 69.3535 1.58325Z" fill="#FF4A35"/>
<path d="M77.6611 10.1151L73.9703 5.16748H77.0425L79.2612 8.44392L81.544 5.16748H84.4881L80.8186 10.1151L85.0001 15.7225H81.8853L79.2185 11.8743L76.5304 15.7225H73.501L77.6611 10.1151Z" fill="#222222"/>
</svg>
