<svg width="530" height="444" viewBox="0 0 530 444" fill="none" xmlns="http://www.w3.org/2000/svg">
<path d="M479.983 171.963C483.067 174.43 489.202 177.588 490.461 176.015C490.836 175.546 525.259 123.037 525.72 122.461L510.908 111.946C510.446 112.523 476.446 163.982 475.913 164.647C474.653 166.22 476.899 169.496 479.983 171.963Z" fill="white"/>
<path fill-rule="evenodd" clip-rule="evenodd" d="M488.657 173.317C488.256 173.209 487.732 173.026 487.102 172.753C485.267 171.956 483.191 170.687 481.858 169.621C480.505 168.538 479.45 167.362 478.897 166.434C478.787 166.249 478.707 166.091 478.651 165.963C478.715 165.869 478.78 165.772 478.842 165.681C478.854 165.662 478.866 165.644 478.879 165.626C479.161 165.207 479.556 164.615 480.048 163.878C481.031 162.404 482.407 160.334 484.042 157.87C487.312 152.942 491.627 146.428 495.939 139.919L496.88 138.498C500.873 132.47 504.798 126.544 507.821 121.987C509.391 119.62 510.717 117.624 511.682 116.175L521.607 123.221C521.6 123.232 521.592 123.244 521.584 123.255C520.596 124.75 519.211 126.852 517.562 129.358C514.263 134.37 509.905 141.004 505.55 147.632L504.197 149.693C500.304 155.618 496.502 161.404 493.557 165.883C491.913 168.382 490.537 170.472 489.561 171.951C489.203 172.493 488.9 172.951 488.657 173.317ZM489.386 173.439C489.389 173.442 489.359 173.444 489.288 173.439C489.348 173.433 489.383 173.436 489.386 173.439ZM525.72 122.461C525.712 122.471 525.693 122.498 525.663 122.541C524.824 123.759 515.531 137.904 506.705 151.339C498.469 163.875 490.639 175.793 490.461 176.015C489.202 177.588 483.067 174.43 479.983 171.963C476.899 169.496 474.653 166.22 475.913 164.647C476.189 164.302 485.452 150.318 494.378 136.842C500.481 127.629 506.427 118.653 509.234 114.437C510.086 113.158 510.649 112.318 510.84 112.041C510.876 111.99 510.898 111.958 510.908 111.946L525.72 122.461Z" fill="#222222"/>
<path d="M479.983 262.681C483.067 260.214 489.202 257.056 490.461 258.629C490.836 259.098 525.259 311.607 525.72 312.183L510.908 322.698C510.446 322.122 476.446 270.662 475.913 269.997C474.653 268.424 476.899 265.148 479.983 262.681Z" fill="white"/>
<path fill-rule="evenodd" clip-rule="evenodd" d="M488.657 261.327C488.256 261.435 487.732 261.618 487.102 261.891C485.267 262.688 483.191 263.957 481.858 265.023C480.505 266.106 479.45 267.282 478.897 268.21C478.787 268.395 478.707 268.553 478.651 268.681C478.715 268.775 478.78 268.872 478.842 268.963C478.854 268.982 478.866 269 478.879 269.018C479.161 269.437 479.556 270.029 480.048 270.766C481.031 272.24 482.407 274.31 484.042 276.774C487.312 281.702 491.627 288.216 495.939 294.725L496.88 296.146C500.873 302.174 504.798 308.1 507.821 312.657C509.391 315.024 510.717 317.02 511.682 318.469L521.607 311.424C521.6 311.412 521.592 311.4 521.584 311.389C520.596 309.894 519.211 307.792 517.562 305.286C514.263 300.274 509.905 293.64 505.55 287.012L504.197 284.951C500.304 279.026 496.502 273.24 493.557 268.761C491.913 266.262 490.537 264.172 489.561 262.693C489.203 262.151 488.9 261.693 488.657 261.327ZM489.386 261.205C489.389 261.202 489.359 261.2 489.288 261.205C489.348 261.211 489.383 261.208 489.386 261.205ZM525.72 312.183C525.712 312.173 525.693 312.146 525.663 312.103C524.824 310.885 515.531 296.74 506.705 283.305C498.469 270.769 490.639 258.851 490.461 258.629C489.202 257.056 483.067 260.214 479.983 262.681C476.899 265.148 474.653 268.424 475.913 269.997C476.189 270.342 485.452 284.326 494.378 297.802C500.481 307.015 506.427 315.991 509.234 320.207C510.086 321.486 510.649 322.326 510.84 322.603C510.876 322.654 510.898 322.686 510.908 322.698L525.72 312.183Z" fill="#222222"/>
<path d="M522.508 112.075C526.433 115.214 527.615 120.258 525.147 123.339C522.68 126.42 517.498 126.373 513.573 123.233C509.647 120.093 508.466 115.05 510.933 111.968C513.4 108.887 518.583 108.935 522.508 112.075Z" fill="white"/>
<path fill-rule="evenodd" clip-rule="evenodd" d="M522.805 121.465C523.84 120.173 523.823 116.968 520.633 114.416C517.442 111.864 514.311 112.55 513.276 113.842C512.241 115.135 512.257 118.339 515.448 120.891C518.638 123.443 521.77 122.757 522.805 121.465ZM525.147 123.339C527.615 120.258 526.433 115.214 522.508 112.075C518.583 108.935 513.4 108.887 510.933 111.968C508.466 115.05 509.647 120.093 513.573 123.233C517.498 126.373 522.68 126.42 525.147 123.339Z" fill="#222222"/>
<path d="M522.508 322.57C526.433 319.43 527.615 314.387 525.147 311.305C522.68 308.224 517.498 308.272 513.573 311.411C509.647 314.551 508.466 319.595 510.933 322.676C513.4 325.757 518.583 325.71 522.508 322.57Z" fill="white"/>
<path fill-rule="evenodd" clip-rule="evenodd" d="M522.805 313.179C523.84 314.472 523.823 317.676 520.633 320.228C517.442 322.78 514.311 322.094 513.276 320.802C512.241 319.509 512.257 316.305 515.448 313.753C518.638 311.201 521.77 311.887 522.805 313.179ZM525.147 311.305C527.615 314.387 526.433 319.43 522.508 322.57C518.583 325.71 513.4 325.757 510.933 322.676C508.466 319.595 509.647 314.551 513.573 311.411C517.498 308.272 522.68 308.224 525.147 311.305Z" fill="#222222"/>
<ellipse cx="195.808" cy="228.704" rx="186.394" ry="186.296" fill="#222222"/>
<path d="M372.789 219.296C372.789 322.184 289.337 405.591 186.394 405.591C83.4516 405.591 0 322.184 0 219.296C0 116.407 83.4516 33 186.394 33C289.337 33 372.789 116.407 372.789 219.296Z" fill="white"/>
<path fill-rule="evenodd" clip-rule="evenodd" d="M186.394 402.591C287.682 402.591 369.789 320.525 369.789 219.296C369.789 118.066 287.682 36 186.394 36C85.1069 36 3 118.066 3 219.296C3 320.525 85.1069 402.591 186.394 402.591ZM186.394 405.591C289.337 405.591 372.789 322.184 372.789 219.296C372.789 116.407 289.337 33 186.394 33C83.4516 33 0 116.407 0 219.296C0 322.184 83.4516 405.591 186.394 405.591Z" fill="#222222"/>
<path d="M344.547 219.296C344.547 306.595 273.74 377.365 186.394 377.365C99.0489 377.365 28.2415 306.595 28.2415 219.296C28.2415 131.996 99.0489 61.2266 186.394 61.2266C273.74 61.2266 344.547 131.996 344.547 219.296Z" fill="#222222"/>
<path d="M139.346 149.411C143.252 145.507 149.585 145.507 153.491 149.411L176.78 172.687C180.686 176.592 180.686 182.922 176.78 186.826L153.491 210.102C149.585 214.006 143.252 214.006 139.346 210.102L116.057 186.826C112.151 182.922 112.151 176.592 116.057 172.687L139.346 149.411Z" fill="#B4DCFA"/>
<path d="M178.373 126.631C182.279 122.727 188.613 122.727 192.519 126.631L207.69 141.794C211.596 145.698 211.596 152.028 207.69 155.932L192.519 171.095C188.613 175 182.279 175 178.373 171.095L163.202 155.932C159.296 152.028 159.296 145.698 163.202 141.794L178.373 126.631Z" fill="#B4DCFA"/>
<path opacity="0.5" d="M217.401 149.411C221.307 145.507 227.64 145.507 231.547 149.411L254.835 172.687C258.742 176.592 258.742 182.922 254.835 186.826L231.547 210.102C227.64 214.006 221.307 214.006 217.401 210.102L194.112 186.826C190.206 182.922 190.206 176.592 194.112 172.687L217.401 149.411Z" fill="#B4DCFA"/>
<path opacity="0.9" d="M248.245 196.597C252.151 192.693 258.485 192.693 262.391 196.597L277.496 211.694C281.402 215.599 281.402 221.929 277.496 225.833L262.391 240.93C258.485 244.834 252.151 244.834 248.245 240.93L233.14 225.833C229.233 221.929 229.233 215.599 233.14 211.694L248.245 196.597Z" fill="#B4DCFA"/>
<path d="M217.401 227.425C221.307 223.521 227.64 223.521 231.547 227.425L254.835 250.701C258.742 254.605 258.742 260.935 254.835 264.839L231.547 288.116C227.64 292.02 221.307 292.02 217.401 288.116L194.112 264.839C190.206 260.935 190.206 254.605 194.112 250.701L217.401 227.425Z" fill="#B4DCFA"/>
<path opacity="0.7" d="M178.373 266.432C182.279 262.528 188.612 262.528 192.519 266.432L209.877 283.781C213.783 287.685 213.783 294.015 209.877 297.919L192.519 315.268C188.612 319.172 182.279 319.172 178.373 315.268L161.015 297.919C157.109 294.015 157.109 287.685 161.015 283.781L178.373 266.432Z" fill="#B4DCFA"/>
<path d="M111.582 199.676C115.488 195.772 121.822 195.772 125.728 199.676L137.753 211.695C141.659 215.599 141.659 221.929 137.753 225.833L125.728 237.852C121.822 241.756 115.488 241.756 111.582 237.852L99.5572 225.833C95.6509 221.929 95.6509 215.599 99.5571 211.695L111.582 199.676Z" fill="#B4DCFA"/>
<rect width="52.9264" height="52.9264" rx="10" transform="matrix(0.707294 0.706919 -0.707294 0.706919 185.446 181.349)" fill="white"/>
<path d="M178.373 188.418C182.279 184.514 188.613 184.514 192.519 188.418L215.807 211.694C219.714 215.599 219.714 221.929 215.807 225.833L192.519 249.109C188.613 253.013 182.279 253.013 178.373 249.109L155.084 225.833C151.178 221.929 151.178 215.599 155.084 211.694L178.373 188.418Z" fill="white"/>
<path d="M139.346 227.425C143.252 223.521 149.585 223.521 153.492 227.425L176.78 250.701C180.687 254.605 180.687 260.935 176.78 264.839L153.492 288.116C149.585 292.02 143.252 292.02 139.346 288.116L116.057 264.839C112.151 260.935 112.151 254.605 116.057 250.701L139.346 227.425Z" fill="#B4DCFA"/>
<path d="M291.96 127.149C294.488 124.559 298.585 124.559 301.113 127.149L313.469 139.807C315.996 142.396 315.996 146.594 313.469 149.183L301.113 161.841C298.585 164.43 294.488 164.43 291.96 161.841L279.604 149.183C277.077 146.594 277.077 142.396 279.604 139.807L291.96 127.149Z" fill="#E3B4FA"/>
<path d="M78.6972 249.837C80.4664 248.005 83.3348 248.005 85.104 249.837L93.7531 258.79C95.5223 260.621 95.5223 263.591 93.7531 265.422L85.104 274.375C83.3348 276.207 80.4664 276.207 78.6972 274.375L70.0481 265.422C68.2789 263.591 68.2789 260.621 70.0481 258.79L78.6972 249.837Z" fill="#E3B4FA"/>
<path d="M139.718 100.81C143.04 99.0492 146.638 102.646 144.876 105.965L142.112 111.173C141.519 112.291 141.519 113.629 142.112 114.747L144.876 119.954C146.638 123.274 143.04 126.871 139.718 125.109L134.508 122.347C133.39 121.754 132.05 121.754 130.932 122.347L125.722 125.109C122.4 126.871 118.802 123.274 120.564 119.954L123.328 114.747C123.921 113.629 123.921 112.291 123.328 111.173L120.564 105.965C118.802 102.646 122.4 99.0492 125.722 100.81L130.932 103.573C132.05 104.166 133.39 104.166 134.508 103.573L139.718 100.81Z" fill="#FFCBAE"/>
<rect x="151.563" y="343.493" width="50.8348" height="4.70443" rx="2.35222" fill="#FFCD9F"/>
<rect x="202.398" y="93.2168" width="43.3037" height="4.70443" rx="2.35222" fill="#E3B4FA"/>
<rect x="60.2488" y="163.783" width="32.0071" height="4.70443" rx="2.35222" fill="#B4DCFA"/>
<rect opacity="0.3" x="289.005" y="261.635" width="35.7726" height="4.70443" rx="2.35222" fill="#B4DCFA"/>
<rect x="265.471" y="261.635" width="16.0036" height="4.70443" rx="2.35222" fill="#B4DCFA"/>
<path d="M243.81 300.925L266.167 307.124C269.851 308.145 270.141 313.254 266.596 314.685L266.301 314.804C260.349 317.207 255.607 321.892 253.135 327.814L252.693 328.874C251.23 332.379 246.16 332.063 245.145 328.403L238.885 305.848C238.053 302.851 240.811 300.094 243.81 300.925Z" fill="#B4DCFA"/>
<path d="M354.902 224C354.902 305.925 368.823 387.871 401.587 415C411.026 415 430.468 415 439.33 415C479.007 415 511.172 329.486 511.172 224C511.172 118.514 479.007 33 439.33 33C422.025 33.0001 403.061 33.0001 403.061 33.0001C369.648 62.3807 354.902 146.7 354.902 224Z" fill="white"/>
<path fill-rule="evenodd" clip-rule="evenodd" d="M403.061 33.0001L439.33 33C479.007 33 511.172 118.514 511.172 224C511.172 329.486 479.007 415 439.33 415H401.587C368.823 387.871 354.902 305.925 354.902 224C354.902 146.7 369.648 62.3807 403.061 33.0001ZM402.686 412C387.542 398.882 376.309 372.826 368.887 339.398C361.372 305.555 357.902 264.817 357.902 224C357.902 185.517 361.575 145.344 369.376 111.198C377.078 77.4884 388.676 50.2467 404.21 36.0001L439.33 36C448.087 36 456.786 40.7074 465.053 50.0033C473.317 59.2963 480.896 72.9141 487.322 89.9988C500.166 124.146 508.172 171.522 508.172 224C508.172 276.478 500.166 323.854 487.322 358.001C480.896 375.086 473.317 388.704 465.053 397.997C456.786 407.293 448.087 412 439.33 412H402.686Z" fill="#222222"/>
<path d="M330.426 224C330.426 329.486 362.669 415 402.442 415C442.216 415 474.458 329.486 474.458 224C474.458 118.514 442.216 33 402.442 33C362.669 33 330.426 118.514 330.426 224Z" fill="white"/>
<path fill-rule="evenodd" clip-rule="evenodd" d="M354.326 357.999C341.451 323.852 333.426 276.477 333.426 224C333.426 171.523 341.451 124.148 354.326 90.001C360.768 72.9168 368.366 59.2991 376.65 50.006C384.936 40.7104 393.658 36 402.442 36C411.226 36 419.948 40.7104 428.235 50.006C436.519 59.2991 444.117 72.9168 450.558 90.001C463.433 124.148 471.458 171.523 471.458 224C471.458 276.477 463.433 323.852 450.558 357.999C444.117 375.083 436.519 388.701 428.235 397.994C419.948 407.29 411.226 412 402.442 412C393.658 412 384.936 407.29 376.65 397.994C368.366 388.701 360.768 375.083 354.326 357.999ZM402.442 415C362.669 415 330.426 329.486 330.426 224C330.426 118.514 362.669 33 402.442 33C442.216 33 474.458 118.514 474.458 224C474.458 329.486 442.216 415 402.442 415Z" fill="#222222"/>
<path d="M337 224C337 293.915 347.745 363.848 372.275 387C379.343 387 393.576 387 400.211 387C429.918 387 454 314.022 454 224C454 133.978 429.918 61 400.211 61C387.255 61.0001 372.168 61.0001 372.168 61.0001C347.151 86.0735 337 158.032 337 224Z" fill="white"/>
<path fill-rule="evenodd" clip-rule="evenodd" d="M372.168 61.0001L400.211 61C429.918 61 454 133.978 454 224C454 314.022 429.918 387 400.211 387H372.275C347.745 363.848 337 293.915 337 224C337 158.032 347.151 86.0735 372.168 61.0001ZM373.495 384C368.137 378.617 363.351 370.636 359.192 360.461C354.83 349.789 351.234 336.891 348.382 322.455C342.678 293.583 340 258.826 340 224C340 191.148 342.529 156.865 348.148 127.733C350.958 113.167 354.528 99.9512 358.908 88.8731C363.086 78.3079 367.939 69.8478 373.438 64.0001L400.211 64C406.312 64 412.612 67.7449 418.783 75.6547C424.925 83.5273 430.587 95.106 435.397 109.682C445.006 138.801 451 179.219 451 224C451 268.781 445.006 309.199 435.397 338.318C430.587 352.894 424.925 364.473 418.783 372.345C412.612 380.255 406.312 384 400.211 384H373.495Z" fill="#222222"/>
<path d="M319 224C319 314.022 342.729 387 372 387C401.271 387 425 314.022 425 224C425 133.978 401.271 61 372 61C342.729 61 319 133.978 319 224Z" fill="white"/>
<path fill-rule="evenodd" clip-rule="evenodd" d="M337.376 338.331C327.907 309.207 322 268.785 322 224C322 179.215 327.907 138.793 337.376 109.669C342.117 95.0908 347.696 83.5105 353.748 75.6378C359.833 67.7224 366.028 64 372 64C377.972 64 384.167 67.7224 390.252 75.6378C396.304 83.5105 401.883 95.0908 406.624 109.669C416.093 138.793 422 179.215 422 224C422 268.785 416.093 309.207 406.624 338.331C401.883 352.909 396.304 364.49 390.252 372.362C384.167 380.278 377.972 384 372 384C366.028 384 359.833 380.278 353.748 372.362C347.696 364.49 342.117 352.909 337.376 338.331ZM372 387C342.729 387 319 314.022 319 224C319 133.978 342.729 61 372 61C401.271 61 425 133.978 425 224C425 314.022 401.271 387 372 387Z" fill="#222222"/>
<path d="M382 49H395V64H382V49Z" fill="white"/>
<path fill-rule="evenodd" clip-rule="evenodd" d="M392 52H385V61H392V52ZM382 49V64H395V49H382Z" fill="#222222"/>
<path d="M382 384H395V399H382V384Z" fill="white"/>
<path fill-rule="evenodd" clip-rule="evenodd" d="M392 387H385V396H392V387ZM382 384V399H395V384H382Z" fill="#222222"/>
<path fill-rule="evenodd" clip-rule="evenodd" d="M438.455 219.384C436.86 219.384 435.303 220.876 435.303 223.059C435.303 225.243 436.86 226.734 438.455 226.734H444.158V229.734H438.455C434.911 229.734 432.303 226.592 432.303 223.059C432.303 219.527 434.911 216.384 438.455 216.384H444.158V219.384H438.455Z" fill="#222222"/>
<path d="M449.806 223.059C449.806 226.697 447.278 229.645 444.158 229.645C441.039 229.645 438.51 226.697 438.51 223.059C438.51 219.422 441.039 216.473 444.158 216.473C447.278 216.473 449.806 219.422 449.806 223.059Z" fill="white"/>
<path fill-rule="evenodd" clip-rule="evenodd" d="M444.158 226.645C445.205 226.645 446.806 225.489 446.806 223.059C446.806 220.63 445.205 219.473 444.158 219.473C443.111 219.473 441.51 220.63 441.51 223.059C441.51 225.489 443.111 226.645 444.158 226.645ZM444.158 229.645C447.278 229.645 449.806 226.697 449.806 223.059C449.806 219.422 447.278 216.473 444.158 216.473C441.039 216.473 438.51 219.422 438.51 223.059C438.51 226.697 441.039 229.645 444.158 229.645Z" fill="#222222"/>
<path fill-rule="evenodd" clip-rule="evenodd" d="M429.545 145.546C428.549 146.79 428.74 148.938 430.447 150.303C432.153 151.668 434.291 151.383 435.287 150.14C435.528 149.839 436.295 148.935 437.077 148.012C437.128 147.952 437.18 147.891 437.231 147.831C438.087 146.821 438.927 145.829 439.204 145.483L441.546 147.357C441.235 147.746 440.356 148.784 439.52 149.77L439.417 149.891C438.598 150.858 437.843 151.748 437.63 152.014C435.415 154.78 431.33 154.851 428.571 152.644C425.813 150.438 424.987 146.439 427.203 143.672C427.56 143.227 428.411 142.223 429.222 141.268L429.282 141.198C430.092 140.245 430.849 139.353 431.119 139.016L433.462 140.89C433.164 141.262 432.392 142.171 431.618 143.082C431.582 143.125 431.546 143.167 431.51 143.209C430.68 144.187 429.867 145.144 429.545 145.546Z" fill="#222222"/>
<path d="M439.683 139.047C442.525 141.32 443.38 144.971 441.594 147.201C439.808 149.432 436.057 149.397 433.215 147.124C430.374 144.851 429.518 141.201 431.304 138.97C433.09 136.74 436.842 136.774 439.683 139.047Z" fill="white"/>
<path fill-rule="evenodd" clip-rule="evenodd" d="M439.251 145.327C439.605 144.885 439.915 143.074 437.808 141.389C435.701 139.704 434.001 140.403 433.647 140.844C433.293 141.286 432.984 143.097 435.09 144.783C437.197 146.468 438.898 145.769 439.251 145.327ZM441.594 147.201C443.38 144.971 442.525 141.32 439.683 139.047C436.842 136.774 433.09 136.74 431.304 138.97C429.518 141.201 430.374 144.851 433.215 147.124C436.057 149.397 439.808 149.432 441.594 147.201Z" fill="#222222"/>
<path fill-rule="evenodd" clip-rule="evenodd" d="M431.545 295.952C430.549 294.708 430.74 292.561 432.447 291.195C434.153 289.83 436.291 290.115 437.287 291.358C437.528 291.659 438.295 292.564 439.077 293.486C439.128 293.546 439.18 293.607 439.231 293.667C440.087 294.677 440.927 295.669 441.204 296.015L443.546 294.141C443.235 293.752 442.356 292.714 441.52 291.728L441.417 291.607C440.598 290.641 439.843 289.75 439.63 289.485C437.415 286.718 433.33 286.647 430.571 288.854C427.813 291.06 426.987 295.059 429.203 297.826C429.56 298.271 430.411 299.275 431.222 300.23L431.282 300.3C432.092 301.253 432.849 302.145 433.119 302.482L435.462 300.608C435.164 300.236 434.392 299.327 433.618 298.416C433.582 298.373 433.546 298.331 433.51 298.289C432.68 297.311 431.867 296.354 431.545 295.952Z" fill="#222222"/>
<path d="M441.683 302.451C444.525 300.178 445.38 296.527 443.594 294.297C441.808 292.067 438.057 292.101 435.215 294.374C432.374 296.647 431.518 300.297 433.304 302.528C435.09 304.758 438.842 304.724 441.683 302.451Z" fill="white"/>
<path fill-rule="evenodd" clip-rule="evenodd" d="M441.251 296.171C441.605 296.613 441.915 298.424 439.808 300.109C437.701 301.794 436.001 301.096 435.647 300.654C435.293 300.212 434.984 298.401 437.09 296.716C439.197 295.03 440.898 295.729 441.251 296.171ZM443.594 294.297C445.38 296.527 444.525 300.178 441.683 302.451C438.842 304.724 435.09 304.758 433.304 302.528C431.518 300.297 432.374 296.647 435.215 294.374C438.057 292.101 441.808 292.067 443.594 294.297Z" fill="#222222"/>
<path fill-rule="evenodd" clip-rule="evenodd" d="M411.481 86.2794C411.927 86.8778 412.737 87.4747 413.866 87.8556C414.998 88.2369 416.059 88.2693 416.834 88.0648C417.595 87.8643 417.965 87.4846 418.105 87.0706C418.212 86.7541 418.722 85.4229 419.24 84.0721C419.278 83.9732 419.316 83.8742 419.354 83.7755C419.93 82.2726 420.484 80.8237 420.597 80.4909L423.44 81.4492C423.302 81.8581 422.712 83.3977 422.155 84.8486L422.106 84.9777C421.547 86.435 421.034 87.7734 420.948 88.0289C420.404 89.6397 419.059 90.5803 417.598 90.9654C416.153 91.3466 414.485 91.2301 412.907 90.6981C411.327 90.1655 409.959 89.2575 409.075 88.0731C408.176 86.8671 407.764 85.3297 408.293 83.7629C408.45 83.296 409.028 81.7917 409.574 80.3715L409.597 80.3127C410.155 78.8616 410.674 77.5108 410.784 77.1834L413.627 78.1413C413.496 78.5303 412.977 79.881 412.459 81.2285C412.431 81.3014 412.403 81.3743 412.375 81.4471C411.81 82.9172 411.267 84.3318 411.135 84.7212C410.981 85.1794 411.05 85.7026 411.481 86.2794Z" fill="#222222"/>
<path d="M418.513 75.2132C421.961 76.3757 424.167 79.0659 423.439 81.2218C422.712 83.3778 419.326 84.1831 415.878 83.0206C412.429 81.8582 410.224 79.168 410.951 77.0121C411.679 74.8561 415.064 74.0508 418.513 75.2132Z" fill="white"/>
<path fill-rule="evenodd" clip-rule="evenodd" d="M420.222 79.7471C419.74 79.1593 418.83 78.4861 417.553 78.0558C416.277 77.6255 415.145 77.6105 414.405 77.7865C414.118 77.8549 413.947 77.9318 413.851 77.9895C413.893 78.0939 413.982 78.2583 414.169 78.4868C414.651 79.0746 415.561 79.7478 416.837 80.1781C418.114 80.6084 419.245 80.6234 419.985 80.4474C420.273 80.379 420.443 80.3021 420.54 80.2444C420.498 80.14 420.409 79.9756 420.222 79.7471ZM420.575 80.383C420.574 80.3829 420.573 80.3758 420.574 80.3619C420.576 80.3761 420.575 80.383 420.575 80.383ZM420.638 80.1717C420.646 80.1599 420.651 80.1549 420.652 80.1553C420.652 80.1557 420.648 80.1616 420.638 80.1717ZM413.816 77.8509C413.816 77.851 413.817 77.8581 413.816 77.872C413.814 77.8578 413.815 77.8509 413.816 77.8509ZM413.752 78.0622C413.745 78.074 413.739 78.079 413.739 78.0786C413.738 78.0782 413.742 78.0723 413.752 78.0622ZM423.439 81.2218C424.167 79.0659 421.961 76.3757 418.513 75.2132C415.064 74.0508 411.679 74.8561 410.951 77.0121C410.224 79.168 412.429 81.8582 415.878 83.0206C419.326 84.1831 422.712 83.3778 423.439 81.2218Z" fill="#222222"/>
<path fill-rule="evenodd" clip-rule="evenodd" d="M412.422 359.923C412.869 359.325 413.678 358.728 414.808 358.347C415.939 357.965 417 357.933 417.776 358.138C418.536 358.338 418.906 358.718 419.046 359.132C419.153 359.448 419.663 360.779 420.181 362.13C420.219 362.229 420.257 362.328 420.295 362.427C420.871 363.93 421.426 365.379 421.538 365.712L424.381 364.753C424.243 364.344 423.653 362.805 423.097 361.354L423.047 361.225C422.488 359.767 421.975 358.429 421.889 358.173C421.345 356.563 420.001 355.622 418.54 355.237C417.094 354.856 415.427 354.972 413.849 355.504C412.269 356.037 410.9 356.945 410.017 358.129C409.117 359.335 408.705 360.873 409.234 362.439C409.391 362.906 409.97 364.411 410.516 365.831L410.538 365.89C411.096 367.341 411.615 368.692 411.726 369.019L414.569 368.061C414.438 367.672 413.918 366.321 413.4 364.974C413.372 364.901 413.344 364.828 413.316 364.755C412.751 363.285 412.208 361.871 412.077 361.481C411.922 361.023 411.992 360.5 412.422 359.923Z" fill="#222222"/>
<path d="M419.454 370.989C422.902 369.827 425.108 367.137 424.381 364.981C423.653 362.825 420.268 362.019 416.819 363.182C413.371 364.344 411.165 367.034 411.893 369.19C412.62 371.346 416.005 372.152 419.454 370.989Z" fill="white"/>
<path fill-rule="evenodd" clip-rule="evenodd" d="M421.163 366.455C420.681 367.043 419.771 367.716 418.495 368.147C417.218 368.577 416.086 368.592 415.347 368.416C415.059 368.348 414.889 368.271 414.792 368.213C414.834 368.109 414.923 367.944 415.11 367.716C415.592 367.128 416.502 366.455 417.779 366.024C419.055 365.594 420.187 365.579 420.927 365.755C421.214 365.823 421.385 365.9 421.481 365.958C421.439 366.062 421.35 366.227 421.163 366.455ZM421.516 365.819C421.515 365.819 421.514 365.827 421.516 365.841C421.517 365.826 421.517 365.819 421.516 365.819ZM421.58 366.031C421.587 366.042 421.592 366.048 421.593 366.047C421.594 366.047 421.59 366.041 421.58 366.031ZM414.757 368.351C414.758 368.351 414.759 368.344 414.758 368.33C414.756 368.345 414.756 368.352 414.757 368.351ZM414.694 368.14C414.686 368.128 414.681 368.123 414.68 368.124C414.68 368.124 414.683 368.13 414.694 368.14ZM424.381 364.981C425.108 367.137 422.902 369.827 419.454 370.989C416.005 372.152 412.62 371.346 411.893 369.19C411.165 367.034 413.371 364.344 416.819 363.182C420.268 362.019 423.653 362.825 424.381 364.981Z" fill="#222222"/>
</svg>
